<?xml version="1.0" standalone="no"?>
<!DOCTYPE svg PUBLIC "-//W3C//DTD SVG 1.1//EN" "http://www.w3.org/Graphics/SVG/1.1/DTD/svg11.dtd" >
<svg xmlns="http://www.w3.org/2000/svg" xmlns:xlink="http://www.w3.org/1999/xlink" version="1.1">
<metadata>
Created by FontForge 20170910 at Sat Jan 13 00:51:07 2007
 By Jimmy Wärting
Aldo is the intellectual property of Sacha Rein  2007. All rights reserved.
</metadata>
<defs>
<font id="Aldo-SemiBold" horiz-adv-x="438" >
  <font-face 
    font-family="Aldo"
    font-weight="600"
    font-stretch="normal"
    units-per-em="1000"
    panose-1="2 0 5 0 0 0 0 2 0 4"
    ascent="800"
    descent="-200"
    x-height="519"
    cap-height="725"
    bbox="-86 -222 979 915"
    underline-thickness="50"
    underline-position="-100"
    unicode-range="U+0020-FB02"
  />
<missing-glyph horiz-adv-x="500" 
 />
    <glyph glyph-name=".notdef" horiz-adv-x="500" 
 />
    <glyph glyph-name=".null" horiz-adv-x="0" 
 />
    <glyph glyph-name="nonmarkingreturn" horiz-adv-x="500" 
 />
    <glyph glyph-name="space" unicode=" " horiz-adv-x="200" 
 />
    <glyph glyph-name="space" unicode="&#xa0;" horiz-adv-x="200" 
 />
    <glyph glyph-name="E" unicode="E" horiz-adv-x="407" 
d="M309 0h-196q-29 0 -50 10.5t-35 27t-21 36.5t-7 39v26v447v26q0 19 7 39t21 36.5t35 27t50 10.5h196v-70h-108h-60q-26 0 -41.5 -17.5t-15.5 -42.5v-9v-184h181v-79h-181v-184v-10q0 -24 15.5 -41.5t41.5 -17.5h60h108v-70z" />
    <glyph glyph-name="F" unicode="F" horiz-adv-x="382" 
d="M84 402h184v-79h-184v-323h-84v586v26q0 19 7 39t21 36.5t35.5 27t49.5 10.5h199v-70h-110h-61q-26 0 -41.5 -17.5t-15.5 -42.5v-9v-184z" />
    <glyph glyph-name="G" unicode="G" horiz-adv-x="439" 
d="M340 124v-10q0 -12 -4 -32t-21 -40t-51 -34.5t-94 -14.5t-94 14.5t-51 34.5t-21 40.5t-4 31.5v25v448v26q0 11 4 31.5t21 40.5t51 34.5t94 14.5t94 -14.5t51 -34.5t21 -40.5t4 -31.5v-26h-85v11q0 9 -3 19.5t-12.5 19.5t-26.5 15.5t-46 6.5q-27 0 -43.5 -6.5t-25.5 -16.5
t-11.5 -20.5t-2.5 -19.5v-9v-448v-9q0 -9 2.5 -19.5t11.5 -20t25.5 -16t43.5 -6.5q29 0 46 6.5t26.5 15.5t12.5 19.5t3 18.5v11v51v87q0 17 -2 27.5t-10.5 14.5t-25.5 1t-47 -13v84q13 5 25.5 9t23.5 8q24 8 52 2t46 -25q9 -9 13.5 -18t7 -19.5t2.5 -24.5v-32v-62v-105z" />
    <glyph glyph-name="H" unicode="H" horiz-adv-x="458" 
d="M276 725h84v-725h-84v323h-191v-323h-85v725h85v-323h191v323v0z" />
    <glyph glyph-name="I" unicode="I" horiz-adv-x="182" 
d="M0 0v725h84v-725h-84v0z" />
    <glyph glyph-name="J" unicode="J" 
d="M340 129v-16q0 -12 -4 -32t-21 -40t-51 -34.5t-94 -14.5t-94 14.5t-51 34.5t-21 40.5t-4 31.5v25h84v-9q0 -9 2.5 -19.5t11.5 -20t25.5 -16t43.5 -6.5q29 0 46 6.5t26.5 15.5t12.5 19.5t3 18.5v11v587h85v-596z" />
    <glyph glyph-name="K" unicode="K" horiz-adv-x="479" 
d="M291 0l-108 310q-11 -4 -20 -7.5t-16 -5.5l-15 -5q-12 -3 -23 -10q-9 -6 -16.5 -15.5t-7.5 -24.5v-1v-241h-85v725h85v-365l22.5 7.5t28 10t29.5 11t27 9.5l24 8q25 9 32.5 25t7.5 29v265h84v-280q0 -32 -17.5 -61t-59.5 -46l118 -338h-90z" />
    <glyph glyph-name="L" unicode="L" horiz-adv-x="394" 
d="M296 71v-71h-183q-29 0 -50 10.5t-35 27t-21 36.5t-7 39v26v586h84v-586v-10q0 -24 15.5 -41t41.5 -17h60h95z" />
    <glyph glyph-name="M" unicode="M" horiz-adv-x="694" 
d="M596 0h-84v586v11q0 9 -3 19.5t-12.5 19.5t-26.5 15.5t-46 6.5q-28 0 -44.5 -6.5t-25 -16.5t-11 -20.5t-2.5 -19.5v-9v-586h-85v586v11q0 9 -3 19.5t-12.5 19.5t-26.5 15.5t-46 6.5q-27 0 -43.5 -6.5t-25.5 -16.5t-11.5 -20.5t-2.5 -19.5v-9v-586h-85v586v26q0 11 4 31.5
t21.5 40.5t51.5 34.5t94 14.5q48 0 78 -9.5t49 -23.5q20 14 50 23.5t78 9.5q60 0 94 -14.5t51 -34.5t21 -40.5t4 -31.5v-12v-600z" />
    <glyph glyph-name="N" unicode="N" 
d="M340 0h-85v586v11q0 9 -3 19.5t-12 19.5t-26.5 15.5t-46.5 6.5q-27 0 -43.5 -6.5t-25.5 -16.5t-11.5 -20.5t-2.5 -19.5v-9v-586h-84v586v26q0 11 4 31.5t21 40.5t51 34.5t94 14.5t94 -14.5t51 -34.5t21 -40.5t4 -31.5v-12v-600z" />
    <glyph glyph-name="O" unicode="O" 
d="M340 124v-10q0 -12 -4 -32t-21 -40t-51 -34.5t-94 -14.5t-94 14.5t-51 34.5t-21 40.5t-4 31.5v25v448v26q0 11 4 31.5t21 40.5t51 34.5t94 14.5t94 -14.5t51 -34.5t21 -40.5t4 -31.5v-10v-479zM255 139h1v448h-1v11q0 9 -3 19.5t-12 19.5t-26.5 15.5t-46.5 6.5
q-27 0 -43.5 -6.5t-25.5 -16.5t-11.5 -20.5t-2.5 -19.5v-9v-448v-9q0 -9 2.5 -19.5t11.5 -20t25.5 -16t43.5 -6.5q29 0 46.5 6.5t26.5 15.5t12 19.5t3 18.5v11z" />
    <glyph glyph-name="P" unicode="P" horiz-adv-x="439" 
d="M341 451v-6q0 -36 -23.5 -68t-80.5 -49q-2 0 -6 -2q-15 -5 -32.5 -11t-32.5 -11q-18 -6 -34 -12q-12 -3 -23 -10q-9 -6 -16.5 -15.5t-7.5 -24.5v-1v-241h-85v586v26q0 11 4 31.5t21.5 40.5t51.5 34.5t94 14.5t94 -14.5t51 -34.5t21 -40.5t4 -31.5v-21v-140zM85 360
q9 3 22.5 8t28.5 10t30 10.5t27 9.5l12 4t11 4q26 9 33 25t7 29v9v117v11q0 9 -3 19.5t-12.5 19.5t-26.5 15.5t-46 6.5q-27 0 -43.5 -6.5t-25.5 -16.5t-11.5 -20.5t-2.5 -19.5v-9v-226v0z" />
    <glyph glyph-name="Q" unicode="Q" horiz-adv-x="432" 
d="M293 -28q5 -2 27.5 -10t51.5 -18v-84q-13 4 -40.5 13t-51.5 19q-28 11 -47 24.5t-31 27.5t-18.5 27t-9.5 22h-4q-60 0 -94 14.5t-51 34.5t-21 40.5t-4 31.5v25v448v26q0 11 4 31.5t21 40.5t51 34.5t94 14.5t94 -14.5t51 -34.5t21 -40.5t4 -31.5v-15v-474v-10
q0 -9 -2 -23.5t-10.5 -30t-24.5 -30.5t-44 -25q5 -14 16 -22.5t18 -10.5zM168 68q29 0 46 6.5t26.5 15.5t12.5 19.5t3 18.5v11v448v11q0 9 -3 19.5t-12.5 19.5t-26.5 15.5t-46 6.5q-28 0 -44.5 -6.5t-25 -16.5t-11 -20.5t-2.5 -19.5v-9v-448v-9q0 -9 2.5 -19.5t11 -20
t25 -16t44.5 -6.5z" />
    <glyph glyph-name="R" unicode="R" horiz-adv-x="441" 
d="M291 0l-108 310q-11 -4 -20 -7.5t-16 -5.5l-15 -5q-12 -4 -23 -10q-9 -5 -16 -14.5t-8 -23.5v-244h-85v591v21q0 11 4 31.5t21 40.5t51 34.5t94 14.5t94 -14.5t51 -34.5t21 -40.5t4 -31.5v-26v-117v-24q0 -32 -17.5 -61t-59.5 -46l118 -338h-90zM85 360q9 3 22.5 8
t28.5 10t30 10.5t27 9.5l12 4t11 4q25 9 32.5 25t7.5 28v132v6q0 9 -3 19.5t-12.5 19.5t-26.5 15.5t-46 6.5q-27 0 -43.5 -6.5t-25.5 -16.5t-11.5 -20.5t-2.5 -19.5v-9v-226v0z" />
    <glyph glyph-name="S" unicode="S" 
d="M340 114q0 -12 -4 -32t-21 -40t-51 -34.5t-94 -14.5t-94 14.5t-51 34.5t-21 40.5t-4 31.5v25h84v-9q0 -9 2.5 -19.5t11.5 -20t25.5 -16t43.5 -6.5q29 0 46 6.5t26.5 15.5t12.5 19.5t3 18.5v11v88v10q0 12 -7 28.5t-33 25.5l-15 5t-16 6l-75 25q-4 2 -6 2q-57 17 -80 49
t-23 68v6v18v122v21q0 11 4 31.5t21 40.5t51 34.5t94 14.5t94 -14.5t51 -34.5t21 -40.5t4 -31.5v-26h-85v11q0 9 -3 19.5t-12.5 19.5t-26.5 15.5t-46 6.5q-27 0 -43.5 -6.5t-25.5 -16.5t-11.5 -20.5t-2.5 -19.5v-9v-117v-9q0 -13 7.5 -29t33.5 -25q4 -2 10 -4l12 -4
q18 -6 41.5 -14t43.5 -16q20 -5 34 -12q18 -6 31.5 -17.5t23.5 -26.5q19 -28 19 -62v-12v-100v-25z" />
    <glyph glyph-name="T" unicode="T" horiz-adv-x="390" 
d="M320 654h-128v-654h-84v654h-128v71h71h269v-71z" />
    <glyph glyph-name="U" unicode="U" horiz-adv-x="439" 
d="M341 123h-1v-10q0 -12 -4 -32t-21 -40t-51 -34.5t-94 -14.5t-94 14.5t-51 34.5t-21 40.5t-4 31.5v25v587h85v-587v-9q0 -9 2.5 -19.5t11.5 -20t25.5 -16t43.5 -6.5q29 0 46 6.5t26.5 15.5t12.5 19.5t3 18.5v11v587h85v-602z" />
    <glyph glyph-name="V" unicode="V" horiz-adv-x="439" 
d="M340 99v-33t-2 -24.5t-7 -19.5t-14 -18q-18 -18 -46 -24t-52 2q-25 8 -54.5 18.5t-55.5 19.5q-7 2 -19.5 6.5t-14.5 5.5q-12 4 -25 10t-24.5 17.5t-18.5 30t-7 48.5v8v579h84v-557q1 -2 1 -5q0 -20 8 -33.5t21 -22.5t28 -14t28 -10q30 -10 47 -13t25.5 1t10.5 14.5
t2 27.5v87h1v525h84v-602v-24z" />
    <glyph glyph-name="W" unicode="W" horiz-adv-x="695" 
d="M596 99q0 -38 -2.5 -57.5t-20.5 -37.5t-46 -24t-52 2q-25 8 -55 18.5t-56 19.5q-5 2 -14.5 5t-15.5 5q-4 -13 -17 -26q-18 -18 -46 -24t-52 2q-25 8 -54.5 18.5t-55.5 19.5q-7 2 -19.5 6.5t-14.5 5.5q-12 4 -25.5 10t-24.5 17.5t-18 30t-7 48.5v8v579h84v-557v-5
q0 -20 8.5 -33.5t21 -22.5t28 -14t28.5 -10q30 -10 47 -13t25.5 1t10.5 14.5t2 27.5v87v525h85v-556v-6q0 -20 8.5 -33.5t21 -22.5t27.5 -14t28 -10q30 -10 47 -13t26 1t11 14.5t2 27.5v87v525h85v-602v-24z" />
    <glyph glyph-name="X" unicode="X" horiz-adv-x="500" 
d="M381 0l-118 337q-15 -5 -30 -10.5t-27 -9.5q-7 -2 -16.5 -5.5t-14.5 -5.5q-26 -9 -33.5 -25t-7.5 -29v-252h-84v266q0 17 4 33t14 30q5 7 10.5 13t11.5 11l-130 372h90l118 -337q14 5 30 10.5t30 10.5q6 2 17.5 6.5t19.5 6.5q26 9 33 25t7 29v249h85v-263
q0 -26 -11.5 -50t-37.5 -43l129 -369h-89z" />
    <glyph glyph-name="Y" unicode="Y" 
d="M340 226v-94v-19q0 -12 -4 -32t-21 -40t-51 -34.5t-94 -14.5t-94 14.5t-51 34.5t-21 40.5t-4 31.5v28h84v-12q0 -9 2.5 -19.5t11.5 -20t25.5 -16t43.5 -6.5q29 0 46 6.5t26.5 15.5t12.5 19.5t3 18.5v11v88v10q0 12 -7 28.5t-33 25.5l-15 5t-16 6l-75 25q-4 2 -6 2
q-57 17 -80 49t-23 68v24v256h84v-268q1 -13 9 -28t32 -23q4 -2 10 -4t13 -4q17 -7 40.5 -15t43.5 -15q6 -2 12 -3.5t11 -3.5v364h85v-474v-1v-24z" />
    <glyph glyph-name="Z" unicode="Z" horiz-adv-x="479" 
d="M381 71v-71h-321q-13 0 -26 6.5t-22 17.5t-11.5 26.5t5.5 34.5l15 30t33 65.5t45 89t51 100t50.5 99t44 86.5t31 61l11.5 23q2 5 0 10t-10 5h-267v71h310q13 0 26 -6.5t22 -17.5t11.5 -27t-5.5 -34q0 -1 -17.5 -35.5t-44.5 -87.5t-59.5 -117t-64 -125t-57 -112l-38.5 -77
q-2 -5 0.5 -10t9.5 -5h278z" />
    <glyph glyph-name="a" unicode="a" 
d="M170 530q88 0 129 -34.5t41 -86.5v-48v-219v-29q0 -18 -6.5 -39.5t-25.5 -39.5t-52 -30t-86 -12t-86 12t-52 30t-25.5 39.5t-6.5 39.5v47q0 38 19.5 69t55.5 44q18 6 41 14t44.5 15.5t37.5 13.5t20 7q4 2 10.5 5.5t12.5 10.5t10.5 16t4.5 21v19q0 10 -4 20.5t-14 19.5
t-26.5 14.5t-41.5 5.5q-50 0 -67.5 -20.5t-17.5 -49.5h-85v24q0 25 9.5 47t30.5 38.5t53 26t77 9.5zM256 265q-2 -10 -10 -15t-15 -7q-15 -5 -32.5 -11.5t-32.5 -11.5q-18 -6 -34 -12q-12 -5 -23 -14q-9 -8 -16.5 -20.5t-7.5 -31.5q0 -38 18 -56.5t67 -18.5q50 0 68 19.5
t18 55.5v123z" />
    <glyph glyph-name="b" unicode="b" 
d="M340 137v-24q0 -25 -9.5 -47t-30.5 -38.5t-53 -26t-77 -9.5q-88 0 -128.5 34.5t-41.5 85.5v613h85v-128v-18q0 -12 4 -21t10 -16t12.5 -10.5t10.5 -5.5q4 -1 20 -7t37.5 -13.5t44.5 -15.5t41 -14q36 -13 55.5 -44t19.5 -69v-24v-202zM256 339h-1v6q0 19 -7 31.5t-16 20.5
q-11 9 -24 14q-16 6 -34 12q-15 5 -32 11.5t-33 11.5q-7 2 -14.5 7t-9.5 16v-124v-6v-212v1q0 -10 4 -21t13.5 -20t26 -14.5t41.5 -5.5q48 0 66.5 19.5t19.5 45.5v207z" />
    <glyph glyph-name="c" unicode="c" 
d="M256 385v10q0 10 -4 20.5t-14 19.5t-26.5 14.5t-41.5 5.5q-50 0 -67.5 -20.5t-17.5 -49.5v-243q0 -38 18 -56.5t67 -18.5q50 0 68 19.5t18 55.5h84v-29q0 -18 -6.5 -39.5t-25.5 -39.5t-52 -30t-86 -12t-86 12t-52 30t-25.5 39.5t-6.5 39.5v47v225v24q0 25 9.5 47
t30.5 38.5t53 26t77 9.5q89 0 129.5 -34.5t40.5 -86.5v-24h-84z" />
    <glyph glyph-name="d" unicode="d" 
d="M340 112q-1 -52 -42 -86.5t-128 -34.5q-45 0 -77.5 9.5t-53.5 26t-30.5 38.5t-9.5 47v24h1v203h-1v23q0 38 19.5 69t56.5 44q18 6 41 14t44 15.5t37 13.5t20 7q4 2 10.5 5.5t12.5 10.5t10.5 16t4.5 21v19v128h85v-613zM170 66q25 0 41.5 5.5t26 14.5t13.5 20t4 21v212v5
v124q-2 -11 -9.5 -16t-15.5 -7q-15 -5 -32.5 -11t-32.5 -11q-18 -6 -34 -12q-12 -5 -23 -15q-9 -8 -16.5 -20.5t-7.5 -31.5v-5v-207q1 -13 5.5 -25t14 -21t26 -14.5t40.5 -5.5z" />
    <glyph glyph-name="e" unicode="e" horiz-adv-x="421" 
d="M171 530q60 0 94 -14.5t51 -34.5t21 -40.5t4 -31.5v-25v-1v-22q0 -17 -6.5 -38t-30.5 -45q-11 -12 -25 -18t-25 -9q-13 -4 -27 -4h-76q-26 0 -46 -19t-20 -47v-45q0 -24 9 -38q4 -7 9 -12t15 -9q8 -4 20.5 -7t32.5 -3q26 0 41 5.5t21 9.5q13 10 18 24t5 30h85v-24
q0 -27 -11.5 -50t-35.5 -40q-17 -12 -47 -21t-76 -9q-34 0 -59 5.5t-43.5 14t-30.5 19.5t-20 22q-18 26 -17 60v23v45v202v1v25q0 12 4 32t21 40t51 34.5t94 14.5zM256 384v9q0 9 -2.5 19.5t-11.5 20t-25.5 16t-43.5 6.5q-28 0 -45.5 -6.5t-27 -15.5t-12.5 -19.5t-3 -18.5
v-11v-1v-8v-84q2 9 9 14.5t16 8.5t18 4t14 1h57q23 0 40 16.5t17 39.5v8v1z" />
    <glyph glyph-name="f" unicode="f" horiz-adv-x="340" 
d="M149 522h85v-71h-85v-451h-85v451h-64v71h64v71v19q0 11 4 31.5t21 40.5t51 34.5t94 14.5q16 0 29 0.5t27 -1.5l-19 -72q-12 -1 -20 -1t-19 -1q-28 0 -44.5 -6.5t-25 -16t-11 -20t-2.5 -19.5v-9v-65z" />
    <glyph glyph-name="g" unicode="g" horiz-adv-x="444" 
d="M182 530q60 0 94 -14.5t51 -34.5t21 -40.5t4 -31.5v-17v-9v-22q0 -17 -6 -38.5t-30 -44.5q-12 -12 -25.5 -18t-24.5 -9q-13 -4 -27 -4h-77q-26 0 -46 -18t-20 -48v-21q0 -11 4.5 -18.5t11 -12t13 -7t9.5 -4.5q4 -1 20 -6.5t37 -13t44.5 -15.5t41.5 -14q36 -13 55.5 -44
t19.5 -69v-47q0 -18 -6.5 -39.5t-25.5 -39.5t-52 -30t-86 -12t-86 12t-52 30t-25.5 39.5t-6.5 39.5v29v205v16v1v52v171v9v17q0 11 4 31.5t21 40.5t51 34.5t94 14.5zM121 39q-7 2 -15 7t-10 15v-123q0 -36 18 -55.5t68 -19.5q49 0 67 18.5t18 56.5q0 19 -7 31.5t-16 20.5
q-11 9 -24 14q-16 6 -34 12q-15 5 -32 11.5t-33 11.5zM267 392q0 9 -2.5 19.5t-11 20.5t-25 16.5t-44.5 6.5t-45.5 -6.5t-27 -15.5t-12.5 -19.5t-3 -19.5v-2v-9v-8v-85q2 9 9 14.5t16.5 8.5t18.5 4t13 1h58q23 0 39.5 16.5t16.5 40.5v8v9z" />
    <glyph glyph-name="h" unicode="h" 
d="M340 331v-331h-85v331v14q0 19 -7 31.5t-16 20.5q-11 10 -24 15q-16 6 -34 12q-15 5 -32 11t-33 11q-7 2 -15 7t-10 16v-124v-5v-340h-84v726h84v-128v-19q0 -12 4.5 -21t10.5 -16t12.5 -10.5t10.5 -5.5q4 -1 20 -7t37 -13.5t44.5 -15.5t41.5 -14q36 -13 55.5 -44
t19.5 -69v-32z" />
    <glyph glyph-name="i" unicode="i" horiz-adv-x="194" 
d="M12 0v522h84v-522h-84v0zM12 724h84v-101h-84v101v0z" />
    <glyph glyph-name="j" unicode="j" horiz-adv-x="182" 
d="M-1 523h85v-593v-20q0 -12 -4 -32t-21 -40t-51 -34.5t-94 -14.5v75q28 0 44.5 6.5t25.5 15.5t12 19.5t3 19.5v9v589zM84 725v-101h-85v101h85z" />
    <glyph glyph-name="k" unicode="k" horiz-adv-x="478" 
d="M290 0l-81 233q-14 -5 -28 -9.5t-25 -8.5q-13 -4 -25 -9q-12 -3 -23 -10q-9 -6 -16.5 -15.5t-7.5 -24.5v-1v-155h-84v725h84v-451q9 3 22.5 8t28.5 10.5t30 10.5l27 9l12 4t11 4q26 9 33 25t7 29v148h85v-162q0 -27 -12 -51.5t-40 -43.5l92 -265h-90z" />
    <glyph glyph-name="l" unicode="l" horiz-adv-x="208" 
d="M26 0v725h84v-725h-84v0z" />
    <glyph glyph-name="m" unicode="m" horiz-adv-x="694" 
d="M596 0h-85v384v9q0 9 -2.5 19.5t-11 20t-25 16t-44.5 6.5t-45.5 -6.5t-27 -15.5t-12.5 -19.5t-3 -18.5v-11v-384h-85v384v9q0 9 -2.5 19.5t-11 20t-25 16t-44.5 6.5t-45.5 -6.5t-27 -15.5t-12.5 -19.5t-3 -18.5v-11v-384h-84v391v18q0 12 4 32t21 40t51 34.5t94 14.5
q48 0 78.5 -9.5t49.5 -23.5q19 14 49.5 23.5t78.5 9.5q60 0 94 -14.5t51 -34.5t21 -40.5t4 -31.5v-10v-399z" />
    <glyph glyph-name="n" unicode="n" horiz-adv-x="439" 
d="M341 0h-85v384v9q0 9 -2.5 19.5t-11.5 20t-25.5 16t-43.5 6.5q-28 0 -45.5 -6.5t-27 -15.5t-12.5 -19.5t-3 -18.5v-11v-384h-85v391v18q0 12 4 32t21.5 40t51.5 34.5t94 14.5t94 -14.5t51 -34.5t21 -40.5t4 -31.5v-10v-399z" />
    <glyph glyph-name="o" unicode="o" 
d="M340 129v-16q0 -12 -4 -32t-21 -40t-51 -34.5t-94 -14.5t-94 14.5t-51 34.5t-21 40.5t-4 31.5v11v285q0 11 4 31.5t21 40.5t51 34.5t94 14.5t94 -14.5t51 -34.5t21 -40t4 -32v-280zM255 139v244v11q0 9 -3 19.5t-12.5 19.5t-26.5 15.5t-46 6.5q-27 0 -43.5 -6.5
t-25.5 -16t-11.5 -20.5t-2.5 -19v-10v-244v-10q0 -8 2.5 -19t11.5 -20.5t25.5 -16t43.5 -6.5q29 0 46 6.5t26.5 15.5t12.5 19.5t3 19.5v11z" />
    <glyph glyph-name="p" unicode="p" 
d="M340 182v-23q0 -38 -19 -69t-56 -44q-18 -6 -41 -14t-44.5 -15.5t-37.5 -13.5t-20 -7q-4 -2 -10 -5.5t-12 -10.5t-10.5 -16t-4.5 -21v-18v-128h-85v613q1 51 41.5 85.5t128.5 34.5q45 0 77 -9.5t53 -26t30.5 -38.5t9.5 -47v-24v-203zM256 390q-1 13 -5.5 25t-14 21
t-26 14t-40.5 5q-25 0 -41.5 -5.5t-26 -14.5t-13.5 -19.5t-4 -21.5v-212v-5v-124q2 11 9.5 16t15.5 7q16 5 33 11.5t32 11.5q18 6 34 12q13 5 24 14q9 8 16 20.5t7 31.5v5v208z" />
    <glyph glyph-name="q" unicode="q" 
d="M340 -203h-85v128v18q0 12 -4.5 21t-10.5 16t-12 10.5t-10 5.5q-4 1 -20 7t-37.5 13.5t-44.5 15.5t-41 14q-37 13 -56.5 44t-19.5 69v23h1v203h-1v24q0 25 9.5 47t30.5 38.5t53.5 26t77.5 9.5q87 0 128 -34.5t42 -85.5v-613zM255 182v212q0 11 -4 21.5t-13.5 19.5
t-26 14.5t-41.5 5.5q-24 0 -40.5 -5t-26 -14t-14 -21t-5.5 -25v-208v-5q0 -19 7.5 -31.5t16.5 -20.5q11 -9 23 -14q16 -6 34 -12q15 -5 32.5 -11.5t32.5 -11.5q8 -2 15.5 -7t9.5 -16v124v5z" />
    <glyph glyph-name="r" unicode="r" horiz-adv-x="286" 
d="M170 529q17 0 29.5 0.5t26.5 -1.5l-19 -73q-12 0 -20 -0.5t-19 -0.5q-27 0 -43.5 -7t-25.5 -16.5t-11.5 -20t-2.5 -19.5v-9v-382h-85v385v23q0 11 4 31.5t21 40.5t51 34.5t94 14.5z" />
    <glyph glyph-name="s" unicode="s" 
d="M255 385q0 29 -17.5 49.5t-67.5 20.5q-25 0 -41.5 -5.5t-26.5 -14.5t-14 -19.5t-4 -20.5v-19q0 -12 4.5 -21t10.5 -16t12.5 -10.5t10.5 -5.5q4 -1 20 -7t37.5 -13.5t44.5 -15.5t41 -14q36 -13 55.5 -44t19.5 -69v-47q0 -18 -6.5 -39.5t-25.5 -39.5t-52 -30t-86 -12
t-86 12t-52 30t-25.5 39.5t-6.5 39.5v29h84q0 -36 18 -55.5t68 -19.5q49 0 67 18.5t18 56.5q0 19 -7 31.5t-16 20.5q-11 9 -24 14q-30 11 -56 20q-23 8 -44.5 15.5t-31.5 10.5q-10 4 -23 12t-25 21t-20 31.5t-8 42.5v48q0 52 41 86.5t129 34.5q45 0 77 -9.5t53 -26
t30.5 -38.5t9.5 -47v-24h-85v0z" />
    <glyph glyph-name="t" unicode="t" horiz-adv-x="305" 
d="M235 75v-75q-60 0 -94 14.5t-51.5 34.5t-21.5 40.5t-4 31.5v18v320h-64v71h64v133h85v-133h86v-71h-86v-312v-9q0 -9 2.5 -19.5t11.5 -20.5t25.5 -16.5t43.5 -6.5h3z" />
    <glyph glyph-name="u" unicode="u" 
d="M340 132v-18q0 -12 -4 -32t-21 -40t-51 -34.5t-94 -14.5t-94 14.5t-51 34.5t-21 40.5t-4 31.5v11v398h84v-383h1v-10q0 -8 2.5 -19t11 -20.5t25 -16t44.5 -6.5q29 0 46 6.5t26 15.5t12 19.5t3 19.5v11h1v383h84v-391z" />
    <glyph glyph-name="v" unicode="v" horiz-adv-x="439" 
d="M340 110v-33q0 -13 -2.5 -23.5t-7 -19.5t-13.5 -18q-18 -18 -46 -24.5t-52 1.5q-25 9 -54.5 19.5t-55.5 18.5q-7 3 -19.5 7t-14.5 5q-12 4 -25 10t-24 17t-18.5 29.5t-7.5 46.5v373h84v-339v-6q0 -20 8.5 -33.5t21 -22t28 -13.5t28.5 -10q30 -10 47 -13t25.5 1t10.5 14.5
t2 27.5v75v319h85v-308v-101v0z" />
    <glyph glyph-name="w" unicode="w" horiz-adv-x="695" 
d="M596 111v-33q0 -13 -2 -23.5t-6.5 -19.5t-13.5 -18q-19 -18 -47 -24.5t-51 1.5q-25 9 -55 19.5t-56 18.5q-5 2 -14.5 5.5t-15.5 5.5q-5 -15 -17 -26q-18 -18 -46 -24.5t-52 1.5q-25 9 -55 19.5t-55 18.5q-8 3 -20 7t-14 5q-12 4 -25 10t-23.5 16.5t-18 27.5t-8.5 44h-1
v378h85v-340v-5q0 -20 8.5 -33.5t21 -22t28 -13.5t28.5 -10q30 -10 47 -13t25.5 1t10.5 14.5t2 27.5v24v1v3v47v319h85v-308v-32v-5q0 -20 8.5 -33.5t21 -22t27.5 -13.5t28 -10q30 -10 47 -13t26 1t11 14.5t2 27.5v75v319h84v-308v-101v0z" />
    <glyph glyph-name="x" unicode="x" horiz-adv-x="446" 
d="M220 233q-17 -6 -34.5 -12t-31.5 -11q-7 -2 -13 -4t-10 -4q-26 -9 -33.5 -25t-7.5 -29v-148h-84v162q0 14 2.5 27t9.5 25v1q15 29 39 45l-92 262h86l81 -233q17 6 34.5 12t31.5 11l12 4t11 4q26 9 33 25t7 29v148h85v-162q0 -29 -13 -52v-1q-12 -27 -38 -44l91 -263h-85z
" />
    <glyph glyph-name="y" unicode="y" horiz-adv-x="439" 
d="M341 -78h-1v-14q0 -12 -4 -32t-21 -40t-51 -34.5t-94 -14.5t-94 14.5t-51 34.5t-21 40.5t-4 31.5v26h85v-9q0 -9 2.5 -19.5t11.5 -20.5t25.5 -16.5t43.5 -6.5q29 0 46 6.5t26.5 15.5t12.5 19.5t3 19.5v1v18q0 12 -4.5 21t-10.5 16t-12.5 10.5t-10.5 5.5q-4 1 -20 7
t-37 13.5t-44.5 15.5t-41.5 14q-36 13 -55.5 44t-19.5 69v23v340h85v-340v-5q0 -19 7.5 -31.5t16.5 -20.5q11 -9 23 -14q16 -6 34 -12q15 -5 32.5 -11.5t32.5 -11.5q8 -2 15.5 -7t9.5 -16v124v5v340h85v-599z" />
    <glyph glyph-name="z" unicode="z" horiz-adv-x="467" 
d="M369 71v-71h-291q-13 0 -26.5 6.5t-22.5 17.5t-11.5 27t5.5 34q1 1 18.5 27.5t44 66t57 85t57 85t44 65.5l17.5 26q2 4 1 8t-8 4h-254v71h292q13 0 26 -6.5t22 -17.5t11.5 -27t-5.5 -34l-10.5 -15.5t-27.5 -40.5t-38.5 -57t-43.5 -65l-118 -176q-2 -5 -1 -9t9 -4h253z
" />
    <glyph glyph-name="zero" unicode="0" 
d="M340 124v-10q0 -12 -4 -32t-21 -40t-51 -34.5t-94 -14.5t-94 14.5t-51 34.5t-21 40.5t-4 31.5v25v448v26q0 11 4 31.5t21 40.5t51 34.5t94 14.5t94 -14.5t51 -34.5t21 -40.5t4 -31.5v-10v-479zM255 139h1v448h-1v11q0 9 -3 19.5t-12 19.5t-26.5 15.5t-46.5 6.5
q-27 0 -43.5 -6.5t-25.5 -16.5t-11.5 -20.5t-2.5 -19.5v-9v-448v-9q0 -9 2.5 -19.5t11.5 -20t25.5 -16t43.5 -6.5q29 0 46.5 6.5t26.5 15.5t12 19.5t3 18.5v11z" />
    <glyph glyph-name="one" unicode="1" horiz-adv-x="353" 
d="M255 0h-84v592q-6 -2 -11.5 -4t-12.5 -4q-20 -7 -43.5 -15t-41.5 -15l-12 -4t-10 -4q-9 -3 -21.5 -7.5t-18.5 -6.5v86q5 2 9.5 3t9.5 3l6 2q17 6 37.5 13t35.5 12q8 3 17.5 6.5t14.5 5.5q26 9 33.5 25t7.5 29v9h84v-726z" />
    <glyph glyph-name="two" unicode="2" 
d="M340 70v-70h-340v61v179v24v3v7q2 28 18 52q21 32 56 44q15 8 34 12q20 7 43.5 15.5t41.5 14.5l12 4t10 4q26 9 33 25t7 29v9v103v9q0 9 -2.5 19.5t-11 20.5t-25 16.5t-44.5 6.5t-45.5 -6.5t-27 -15.5t-12.5 -19.5t-3 -19.5v-11h-84v25q0 12 4 32.5t21 40.5t51 34.5
t94 14.5t94 -15t51 -35t21 -40.5t4 -31.5v-20v-108v-24v-8q-3 -35 -26.5 -64.5t-77.5 -44.5q-2 0 -6 -2q-17 -6 -37.5 -13t-36.5 -12q-7 -2 -16.5 -6t-14.5 -6q-26 -8 -33 -24t-8 -28v-181h193h63z" />
    <glyph glyph-name="three" unicode="3" horiz-adv-x="439" 
d="M341 254h-1v-120v-20q0 -11 -4 -31.5t-21 -40.5t-51 -34.5t-94 -14.5t-94 14.5t-51 34.5t-21 40t-4 32v25h85v-11q0 -8 3 -18.5t12.5 -19.5t27 -15.5t45.5 -6.5q27 0 43.5 6.5t25.5 16t11.5 20t2.5 19.5v9v115v10q0 8 -2.5 19t-11.5 20.5t-25 16t-43 6.5h-1h-88v76h88h1
q27 0 43 6.5t25 16t11.5 20.5t2.5 19v10v113v9q0 9 -2.5 19.5t-11.5 20.5t-25.5 16.5t-43.5 6.5q-28 0 -45.5 -6.5t-27 -15.5t-12.5 -19.5t-3 -19.5v-11h-85v25q0 12 4 32.5t21 40.5t51 34.5t94 14.5t94 -15t51 -35t21 -40.5t4 -31.5v-20v-140v-4q0 -6 -1 -16t-4.5 -21.5
t-11 -23.5t-20.5 -23q13 -11 20.5 -23t11.5 -23.5t5 -21.5t1 -16v-26z" />
    <glyph glyph-name="four" unicode="4" horiz-adv-x="439" 
d="M341 725v-725h-85v240v10q0 12 -7.5 28t-33.5 25q-5 2 -14.5 5.5t-16.5 6.5q-16 5 -36.5 12t-37.5 13q-4 2 -6 2q-57 16 -80.5 48.5t-23.5 68.5v24v242h85v-250v-1q0 -13 7 -29t33 -25q5 -2 11 -4l12 -4q17 -6 40.5 -14.5t43.5 -15.5q7 -2 13 -3.5t11 -3.5v350h85z" />
    <glyph glyph-name="five" unicode="5" 
d="M170 531q60 0 94 -14.5t51 -34.5t21 -40.5t4 -31.5v-25v-252v-20q0 -11 -4 -31.5t-21 -40.5t-51 -34.5t-94 -14.5t-94 14.5t-51 34.5t-21 40t-4 32v26h84v-11q0 -9 3 -19.5t12.5 -19.5t27 -15.5t45.5 -6.5t44.5 6.5t25.5 16t11.5 20t2.5 19.5v10v246v9q0 9 -2.5 19.5
t-11.5 20t-25.5 16t-43.5 6.5q-28 0 -45.5 -6.5t-27 -15.5t-12.5 -19.5t-3 -18.5v-11h-1h-84v279v61h340v-70h-63h-193v-135q36 11 86 11z" />
    <glyph glyph-name="six" unicode="6" horiz-adv-x="439" 
d="M256 587v11q0 9 -3 19.5t-12.5 19.5t-26.5 15.5t-46 6.5q-27 0 -43.5 -6.5t-25.5 -16.5t-11.5 -20.5t-2.5 -19.5v-9v-94v-8v-9q0 -13 7.5 -29t32.5 -25q6 -2 15.5 -5.5t16.5 -5.5q16 -6 36 -13t38 -13q2 -1 3 -1t3 -1q54 -15 77.5 -44.5t25.5 -63.5h1v-6v-3v-24v-103v-25
q0 -12 -4 -32t-21 -40t-51 -34.5t-94 -14.5t-94 14.5t-51.5 34.5t-21.5 40.5t-4 31.5v20v318v9v24v8v99v20q0 11 4 31.5t21.5 40.5t51.5 35t94 15t94 -14.5t51 -34.5t21 -40.5t4 -32.5v-25h-85zM168 68q29 0 46 6.5t26.5 15.5t12.5 19.5t3 18.5v6v119q0 12 -7.5 28t-32.5 24
q-5 2 -11 4l-12 4q-18 7 -41 15t-43 15q-7 2 -13 4t-11 4v-212v-9q0 -9 2.5 -19.5t11.5 -20t25.5 -16t43.5 -6.5z" />
    <glyph glyph-name="seven" unicode="7" 
d="M340 460v-3v-6q-2 -29 -18 -53q-20 -30 -56 -44q-15 -8 -34 -12q-20 -7 -43.5 -15t-40.5 -14l-12 -4t-11 -4q-26 -9 -33 -25.5t-7 -28.5v-10v-241h-85v241v24v9h1q2 34 25.5 63.5t77.5 44.5q2 1 3 1t3 1q18 6 38 13.5t36 12.5q7 2 16.5 5.5t15.5 5.5q25 9 32.5 24.5
t7.5 28.5v180h-193h-63v71h340v-61v-180v-24z" />
    <glyph glyph-name="eight" unicode="8" 
d="M340 254v-120v-20q0 -11 -4 -31.5t-21 -40.5t-51 -34.5t-94 -14.5t-94 14.5t-51 34.5t-21 40t-4 32v25v115v26q0 14 6.5 38t31.5 46q-13 11 -20.5 23t-11.5 23t-5 21t-1 17v26v113v25q0 12 4 32.5t21 40.5t51 34.5t94 14.5t94 -15t51 -35t21 -40.5t4 -31.5v-20v-140v-4
q0 -6 -1 -16t-4.5 -21.5t-11 -23.5t-20.5 -23q13 -11 20.5 -23t11 -23.5t4.5 -21.5t1 -16v-26zM173 659q-28 0 -45.5 -6.5t-27 -15.5t-12.5 -19.5t-3 -19.5v-6v-131q0 -9 3.5 -19t13 -19t26.5 -15t45 -6q27 0 43.5 6.5t25.5 16t11.5 20.5t2.5 19v10v113v9q0 9 -2.5 19.5
t-11.5 20.5t-25.5 16.5t-43.5 6.5zM256 254v10q0 9 -2.5 19.5t-11.5 20t-25.5 16t-43.5 6.5q-28 0 -45.5 -6.5t-27 -15.5t-12.5 -19.5t-3 -19.5v-11v-120v-6q0 -8 3 -18.5t12.5 -19.5t27 -15.5t45.5 -6.5q27 0 43.5 6.5t25.5 16t11.5 20t2.5 19.5v9v115z" />
    <glyph glyph-name="nine" unicode="9" 
d="M340 137v-10v-13q0 -11 -4 -31.5t-21 -40.5t-51 -34.5t-94 -14.5t-94 14.5t-51 34.5t-21 40t-4 32v25h84v-11q0 -8 3 -18.5t12.5 -19.5t27 -15.5t45.5 -6.5t44.5 6.5t25 16t11 20t2.5 19.5v9v8q0 13 -7 29t-33 25q-6 2 -15.5 5.5t-16.5 5.5q-16 5 -36 12t-38 14
q-2 0 -6 2q-57 16 -80 48t-23 69v23v207v25q0 12 4 32.5t21 40.5t51 34.5t94 14.5t94 -15t51 -35t21 -40.5t4 -31.5v-20v-317v-42v-71v-1v-24zM172 659q-28 0 -45.5 -6.5t-27 -15.5t-12.5 -19.5t-3 -19.5v-6v-222q1 -13 8.5 -28.5t32.5 -24.5q4 -2 10 -4l12 -4
q18 -6 41.5 -14t43.5 -15l12 -4t11 -4v3v312v9q0 9 -2.5 19.5t-11 20.5t-25 16.5t-44.5 6.5z" />
    <glyph glyph-name="comma" unicode="," horiz-adv-x="125" 
d="M-14 88h87v-88q0 -51 -21.5 -80t-65.5 -29v28q17 1 26 8.5t13.5 18.5t5 25t-1.5 29h-43v88z" />
    <glyph glyph-name="periodcentered" unicode="&#xb7;" horiz-adv-x="184" 
d="M0 0v88h86v-88h-86v0z" />
    <glyph glyph-name="periodcentered" unicode="&#x2219;" horiz-adv-x="184" 
d="M0 0v88h86v-88h-86v0z" />
    <glyph glyph-name="B" unicode="B" 
d="M340 447q0 -14 -6.5 -39t-32.5 -46q26 -22 32.5 -47t6.5 -39v-22v-115v-26q0 -19 -7 -39t-21 -36.5t-35.5 -27t-50.5 -10.5h-226v323v79v323h84h142q29 0 50.5 -10.5t35.5 -27t21 -36.5t7 -39v-26v-121v-18v0zM84 402h102q22 2 35.5 8.5t21 15.5t10 18.5t2.5 16.5v12v120
v2q0 25 -15 42.5t-41 17.5h-61h-54v-253zM199 70q25 0 39.5 16t16.5 39v126v11q0 8 -3 18.5t-12 20t-26 16t-44 6.5h-86v-253h54h61v0z" />
    <glyph glyph-name="A" unicode="A" 
d="M340 0h-85v335q-2 -1 -21.5 -8t-42.5 -15l-60 -20q-12 -3 -23 -10q-9 -6 -16.5 -15.5t-7.5 -24.5v-1v-241h-84v612q0 11 4 31.5t21 40.5t51 34.5t94 14.5t94 -14.5t51 -34.5t21 -40.5t4 -31.5v-612zM84 360q9 3 30 10.5t42.5 15t39 13.5t19.5 7q26 9 33 25t7 29v137
q0 9 -3 19.5t-12.5 19.5t-26.5 15.5t-46 6.5q-27 0 -43.5 -6.5t-25.5 -16.5t-11.5 -20.5t-2.5 -19.5v-235v0z" />
    <glyph glyph-name="C" unicode="C" horiz-adv-x="411" 
d="M256 587v11q0 9 -3 19.5t-12.5 19.5t-26.5 15.5t-46 6.5q-27 0 -43.5 -6.5t-25.5 -16.5t-11.5 -20.5t-2.5 -19.5v-9v-448v-9q0 -9 2.5 -19.5t11.5 -20t25.5 -16t43.5 -6.5q29 0 46 6.5t26.5 15.5t12.5 19.5t3 18.5v11h85v-25q0 -12 -4 -32t-21 -40t-51 -34.5t-94 -14.5
t-94 14.5t-51.5 34.5t-21.5 40.5t-4 31.5v25v448v26q0 11 4 31.5t21.5 40.5t51.5 34.5t94 14.5t94 -14.5t51 -34.5t21 -40.5t4 -31.5v-26h-85z" />
    <glyph glyph-name="D" unicode="D" 
d="M340 139v-26q0 -19 -7 -39t-21 -36.5t-35 -27t-50 -10.5h-177h-2h-48v725h85h142q29 0 50 -10.5t35 -27t21 -36.5t7 -39v-26v-447zM256 586v9q0 25 -15.5 42.5t-41.5 17.5h-60h-54v-585h54h60q26 0 41.5 17.5t15.5 41.5v10v447z" />
    <glyph glyph-name="endash" unicode="&#x2013;" horiz-adv-x="500" 
 />
    <glyph glyph-name="hyphen" unicode="-" 
d="M340 285v-71h-340v71h340z" />
    <glyph glyph-name="hyphen" unicode="&#xad;" 
d="M340 285v-71h-340v71h340z" />
    <glyph glyph-name="underscore" unicode="_" horiz-adv-x="439" 
d="M341 71v-71h-341v71h72h269z" />
    <glyph glyph-name="quotedbl" unicode="&#x22;" horiz-adv-x="500" 
d="M0 782h86v-88q0 -51 -21.5 -80t-65.5 -29v28q17 2 26 9t13.5 18t5 25.5t-0.5 29.5h-28q-8 0 -15 -1v88zM135 782h86v-88q0 -51 -21.5 -80t-65.5 -29v28q17 2 26 9t13.5 18t5 25.5t-1.5 29.5h-27q-8 0 -15 -1v88z" />
    <glyph glyph-name="quotedblright" unicode="&#x201d;" horiz-adv-x="319" 
d="M0 782h86v-88q0 -51 -21.5 -80t-65.5 -29v28q17 2 26 9t13.5 18t5 25.5t-0.5 29.5h-28q-8 0 -15 -1v88zM135 782h86v-88q0 -51 -21.5 -80t-65.5 -29v28q17 2 26 9t13.5 18t5 25.5t-1.5 29.5h-27q-8 0 -15 -1v88z" />
    <glyph glyph-name="quotedblleft" unicode="&#x201c;" horiz-adv-x="320" 
d="M221 585h-86v88q0 51 21.5 80t65.5 29v-28q-16 -1 -25.5 -8.5t-14 -18.5t-4.5 -25t1 -29h42v-88zM87 585h-87v88q0 51 21.5 80t66.5 29q0 -5 -0.5 -14t-0.5 -14q-16 -1 -25.5 -8.5t-14 -18.5t-4.5 -25t1 -29h43v-88z" />
    <glyph glyph-name="quoteright" unicode="&#x2019;" horiz-adv-x="184" 
d="M0 782h86v-88q0 -51 -21.5 -80t-65.5 -29v28q17 2 26 9t13.5 18t5 25.5t-0.5 29.5h-28q-8 0 -15 -1v88z" />
    <glyph glyph-name="quoteleft" unicode="&#x2018;" horiz-adv-x="186" 
d="M87 585h-87v88q0 51 21.5 80t66.5 29q0 -5 -0.5 -14t-0.5 -14q-16 -1 -25.5 -8.5t-14 -18.5t-4.5 -25t1 -29h43v-88z" />
    <glyph glyph-name="exclam" unicode="!" horiz-adv-x="294" 
d="M213 185h-85v542h85v-542zM214 89v-89h-87v89h87z" />
    <glyph glyph-name="question" unicode="?" horiz-adv-x="452" 
d="M354 587v-129q-1 -17 -7 -36.5t-20 -39.5q-1 0 -1 -1h-1q-2 -4 -5 -7.5t-5 -6.5q-2 -2 -4 -6q-10 -13 -21.5 -27t-20.5 -27q-11 -15 -21 -29q-5 -5 -9 -12q-4 -6 -7 -15t-5 -20v-67h-85v75h1q0 33 21 61q4 5 12.5 16.5t19.5 26t22.5 29.5t20.5 27q4 5 8 10.5t6 9.5
q8 10 11.5 20.5t4.5 20.5v27v3v102v6q0 9 -3 19.5t-12.5 19.5t-26.5 15.5t-46 6.5q-27 0 -43.5 -6.5t-25.5 -16.5t-11.5 -20.5t-2.5 -19.5v-9h-84v25q0 11 4 31.5t21 40.5t51 34.5t94 14.5t94 -14.5t51 -34.5t21 -40t4 -32v-25zM141 89h86v-89h-86v89z" />
    <glyph glyph-name="egrave" unicode="&#xe8;" 
d="M170 530q60 0 94 -14.5t51 -34.5t21 -40.5t4 -31.5v-25v-23q0 -17 -6.5 -38t-29.5 -45q-12 -12 -25.5 -18t-25.5 -9q-14 -4 -27 -3h-76q-26 0 -46 -19.5t-20 -46.5v-45q0 -25 9 -39q4 -7 9 -12t15 -9q8 -4 21 -7t32 -3q26 0 41 5.5t21 9.5v1q13 10 18 23.5t5 29.5h85v-24
q0 -27 -11.5 -50t-35.5 -40q-17 -12 -46.5 -21t-76.5 -9q-68 0 -103 19t-50 42q-18 27 -17 61v23v45v202v25q0 12 4 32t21 40t51 34.5t94 14.5zM255 393q0 9 -2.5 19.5t-11.5 20t-25.5 16t-43.5 6.5q-28 0 -45.5 -6.5t-27 -15.5t-12.5 -19.5t-3 -18.5v-11v-8v-85q2 9 9 14.5
t16 8.5t18 4t14 1h57q24 0 40.5 16.5t16.5 40.5v8v9zM195 572q-4 4 -26 25t-47.5 47t-49 49.5l-32.5 32.5h112q2 -4 8 -13t13.5 -21.5l16.5 -27.5l18 -30q21 -35 47 -78q-13 1 -25 4q-11 2 -20.5 5t-14.5 7z" />
    <glyph glyph-name="eacute" unicode="&#xe9;" 
d="M170 530q60 0 94 -14.5t51 -34.5t21 -40.5t4 -31.5v-25v-23q0 -17 -6 -38t-30 -45q-12 -12 -25.5 -18t-24.5 -9q-13 -4 -27 -3h-76q-27 0 -46.5 -19.5t-19.5 -46.5v-45q0 -25 9 -39q4 -7 9 -12t14 -9q8 -4 21 -7t32 -3q27 0 42 5.5t21 9.5v1q13 10 18 23.5t5 29.5h84v-24
q0 -27 -11 -50t-35 -40q-17 -12 -47 -21t-77 -9q-34 0 -59 5t-43 13.5t-30 19.5t-20 23q-18 27 -18 61v23v45v202v25q0 12 4 32t21 40t51 34.5t94 14.5zM256 393q0 9 -2.5 19.5t-11.5 20t-25.5 16t-43.5 6.5q-28 0 -45.5 -6.5t-27 -15.5t-12.5 -19.5t-3 -18.5v-11v-8v-85
q1 9 8.5 14.5t16.5 8.5t18 4t13 1h58q23 0 40 16.5t17 40.5v8v9zM300 726l-32.5 -32.5t-49 -49.5t-47 -47t-26.5 -25t-14 -7t-20 -5q-12 -3 -26 -4q26 43 47 78l18 30l16.5 27.5t13.5 21.5t8 13h112v0z" />
    <glyph glyph-name="agrave" unicode="&#xe0;" 
d="M170 530q88 0 129 -34.5t41 -86.5v-47v-220v-28q0 -19 -6.5 -40.5t-25.5 -39.5t-52 -30t-86 -12t-86 12t-52 30t-25.5 39.5t-6.5 40.5v46q0 38 19.5 69t55.5 44q18 6 41 14t44.5 15.5t37.5 13.5t20 7q4 2 10.5 5.5t12.5 10.5t10 16t4 21v19q0 10 -4 21t-13.5 20t-26 14.5
t-41.5 5.5q-50 0 -68 -21t-18 -49h-84v23q0 25 9.5 47t30.5 38.5t53 26t77 9.5zM255 266q-2 -11 -9.5 -16t-14.5 -7q-15 -5 -32.5 -11.5t-32.5 -11.5q-18 -6 -34 -12q-12 -5 -23 -14q-9 -8 -16.5 -20.5t-7.5 -31.5q0 -38 18 -56.5t67 -18.5q50 0 67.5 19.5t17.5 55.5v124z
M194 572q-3 2 -14 13t-26.5 26t-33 33t-33.5 34t-28.5 29t-18.5 18l111 1q2 -4 8 -13t13.5 -22t16.5 -28l18 -30q21 -35 47 -77q-13 1 -25 4q-11 2 -20.5 5t-14.5 7z" />
    <glyph glyph-name="oacute" unicode="&#xf3;" 
d="M340 129v-15q0 -12 -4 -32.5t-21 -40.5t-51 -34.5t-94 -14.5t-94 15t-51 35t-21 40.5t-4 31.5v10v285q0 12 4 32t21 40t51 34.5t94 14.5t94 -14.5t51 -34t21 -40t4 -32.5v-280zM256 139v245v11q0 8 -3 18.5t-12.5 19.5t-26.5 15.5t-46 6.5q-27 0 -43.5 -6.5t-25.5 -16
t-11.5 -20t-2.5 -19.5v-9v-245v-9q0 -9 2.5 -19.5t11.5 -20.5t25.5 -16.5t43.5 -6.5q29 0 46 6.5t26.5 15.5t12.5 19.5t3 19.5v11zM336 726l-32.5 -32.5t-49 -49.5t-47 -47t-26.5 -25q-4 -4 -14 -7t-20 -5q-11 -3 -25 -4q26 43 47 78l18 30l16.5 27.5t13 21.5t7.5 13h112v0z
" />
    <glyph glyph-name="odieresis" unicode="&#xf6;" 
d="M124 574h-84v100h84v-100zM295 574h-84v100h84v-100zM340 129v-15q0 -12 -4 -32.5t-21 -40.5t-51 -34.5t-94 -14.5t-94 15t-51 35t-21 40.5t-4 31.5v10v285q0 12 4 32t21 40t51 34.5t94 14.5t94 -14.5t51 -34t21 -40t4 -32.5v-280zM255 139v245v11q0 8 -3 18.5
t-12.5 19.5t-26.5 15.5t-46 6.5q-27 0 -43.5 -6.5t-25.5 -16t-11.5 -20t-2.5 -19.5v-9v-245v-9q0 -9 2.5 -19.5t11.5 -20.5t25.5 -16.5t43.5 -6.5q29 0 46 6.5t26.5 15.5t12.5 19.5t3 19.5v11z" />
    <glyph glyph-name="adieresis" unicode="&#xe4;" 
d="M170 530q89 0 129.5 -34.5t40.5 -86.5v-47v-220v-28q0 -19 -6.5 -40.5t-25.5 -39.5t-52 -30t-86 -12t-86 12t-52 30t-25.5 39.5t-6.5 40.5v46q0 38 19.5 69t55.5 44q18 6 41.5 14t44.5 15.5t37 13.5t20 7q4 2 10.5 5.5t12.5 10.5t10.5 16t4.5 21v19q0 10 -4 20.5
t-14 19.5t-26.5 14.5t-41.5 5.5q-50 0 -67.5 -20.5t-17.5 -49.5h-85v24q0 25 9.5 47t30.5 38.5t53 26t77 9.5zM256 266q-2 -11 -10 -16t-15 -7q-15 -5 -32.5 -11.5t-32.5 -11.5q-18 -6 -34 -12q-12 -5 -23 -14q-9 -8 -16.5 -20.5t-7.5 -31.5q0 -38 18 -56.5t67 -18.5
q50 0 68 19.5t18 55.5v124zM128 575h-85v100h85v-100zM299 575h-85v100h85v-100z" />
    <glyph glyph-name="udieresis" unicode="&#xfc;" horiz-adv-x="439" 
d="M127 582h-85v101h85v-101zM298 582h-84v101h84v-101zM341 139v-17q0 -12 -4 -32.5t-21 -40.5t-51 -34.5t-94 -14.5t-94 15t-51 35t-21 40.5t-4 31.5v10h-1v398h85v-383v-9q0 -9 2.5 -19.5t11.5 -20.5t25.5 -16.5t43.5 -6.5q29 0 46 6.5t26.5 15.5t12.5 19.5t3 19.5v11
v383h85v-391z" />
    <glyph glyph-name="ocircumflex" unicode="&#xf4;" 
d="M340 129v-15q0 -12 -4 -32.5t-21 -40.5t-51 -34.5t-94 -14.5t-94 15t-51 35t-21 40.5t-4 31.5v10v285q0 12 4 32t21 40t51 34.5t94 14.5t94 -14.5t51 -34t21 -40t4 -32.5v-280zM255 139v245v11q0 8 -3 18.5t-12 19.5t-26.5 15.5t-46.5 6.5q-27 0 -43.5 -6.5t-25.5 -16
t-11.5 -20t-2.5 -19.5v-9v-245v-9q0 -9 2.5 -19.5t11.5 -20.5t25.5 -16.5t43.5 -6.5q29 0 46.5 6.5t26.5 15.5t12 19.5t3 19.5v11zM171 672q-10 -15 -21.5 -31.5t-21 -30.5t-17 -23.5t-9.5 -11.5q-5 -4 -14 -7t-20 -5q-12 -3 -26 -4l103 169h26h27l102 -169q-13 1 -25 4
q-11 2 -20.5 5t-14.5 7q-2 2 -8.5 11t-16 23t-21 30.5t-23.5 32.5z" />
    <glyph glyph-name="ucircumflex" unicode="&#xfb;" 
d="M340 139v-17q0 -12 -4 -32.5t-21 -40.5t-51 -34.5t-94 -14.5t-94 15t-51 35t-21 40.5t-4 31.5v10v398h85v-383v-9q0 -9 2.5 -19.5t11.5 -20.5t25.5 -16.5t43.5 -6.5q29 0 46 6.5t26.5 15.5t12.5 19.5t3 19.5v11v383h84v-391zM170 678q-10 -15 -21.5 -31.5t-21 -31
t-17 -24t-9.5 -11.5q-5 -4 -14 -7t-20 -5q-12 -3 -26 -4l103 170h26h27l102 -170q-13 1 -25 4q-11 2 -20.5 5t-14.5 7q-2 2 -8.5 11.5t-16 23.5t-21 30.5t-23.5 32.5z" />
    <glyph glyph-name="icircumflex" unicode="&#xee;" horiz-adv-x="356" 
d="M85 523h85v-523h-85v523zM258 557q-13 1 -25 4q-11 2 -20.5 4.5t-14.5 6.5q-2 2 -9 11.5t-16.5 23.5t-21 30.5t-22.5 32.5q-10 -15 -21.5 -31.5t-21.5 -31t-17 -24t-9 -11.5q-5 -4 -14 -6.5t-20 -4.5q-12 -3 -26 -4l102 169h27h26z" />
    <glyph glyph-name="aacute" unicode="&#xe1;" 
d="M170 530q44 0 76 -9.5t53 -26t31 -38.5t10 -48v-47v-220v-28q0 -19 -6.5 -40t-25.5 -39t-52 -30t-86 -12t-86 12t-52 30t-25.5 39.5t-6.5 39.5v46q0 38 19.5 69.5t55.5 43.5q18 6 41.5 14t44.5 15.5t37 13.5t20 7q4 2 10.5 5.5t12.5 10.5t10.5 16.5t4.5 21.5v18
q0 10 -4 21t-14 20t-26.5 14.5t-41.5 5.5q-50 0 -67.5 -21t-17.5 -49h-85v23q0 25 9.5 47.5t30.5 39t53 26t77 9.5zM256 265q-2 -10 -9.5 -15t-15.5 -8q-15 -5 -32.5 -11t-32.5 -11q-18 -6 -34 -12q-12 -5 -23 -15q-9 -8 -16.5 -20.5t-7.5 -31.5q0 -37 18 -55.5t67 -18.5
q50 0 68 19t18 55v124zM299 725l-32.5 -32.5t-49 -49.5t-47 -47t-26.5 -25t-14 -7t-20 -5q-12 -3 -26 -4q26 42 47 77l18 30t16.5 28t13.5 22t8 13h112v0z" />
    <glyph glyph-name="acircumflex" unicode="&#xe2;" 
d="M171 669q-10 -15 -21.5 -31.5t-21 -30.5t-17 -23.5t-9.5 -11.5q-5 -4 -14 -7t-20 -5q-12 -3 -26 -4l103 170h26h27l103 -170q-14 1 -26 4q-11 2 -20 5t-14 7q-2 2 -9 11.5t-16.5 23t-21 30t-23.5 32.5zM170 530q44 0 76 -9.5t53 -26t31 -38.5t10 -48v-47v-220v-28
q0 -19 -6.5 -40t-25.5 -39t-52 -30t-86 -12t-86 12t-52 30t-25.5 39.5t-6.5 39.5v46q0 38 19.5 69.5t55.5 43.5q18 6 41.5 14t44.5 15.5t37 13.5t20 7q4 2 10.5 5.5t12.5 10.5t10.5 16.5t4.5 21.5v18q0 10 -4 21t-14 20t-26.5 14.5t-41.5 5.5q-50 0 -67.5 -21t-17.5 -49h-85
v23q0 25 9.5 47.5t30.5 39t53 26t77 9.5zM256 265q-2 -10 -9.5 -15t-15.5 -8q-15 -5 -32.5 -11t-32.5 -11q-18 -6 -34 -12q-12 -5 -23 -15q-9 -8 -16.5 -20.5t-7.5 -31.5q0 -37 18 -55.5t67 -18.5q50 0 68 19t18 55v124z" />
    <glyph glyph-name="ecircumflex" unicode="&#xea;" 
d="M171 669q-10 -15 -21.5 -31.5t-21.5 -30.5t-17 -23.5t-9 -11.5q-5 -4 -14 -7t-20 -5q-12 -3 -26 -4l103 170h26h26l103 -170q-13 1 -25 4q-11 2 -20.5 5t-14.5 7q-2 2 -9 11.5t-16.5 23t-20.5 30t-23 32.5zM170 530q60 0 94 -14.5t51 -34.5t21 -40.5t4 -31.5v-25v-1v-22
q0 -17 -6 -38t-30 -45q-12 -12 -25.5 -18t-24.5 -9q-13 -4 -27 -4h-76q-27 0 -46.5 -19t-19.5 -47v-45q0 -24 9 -38q4 -7 9 -12t14 -9q8 -4 21 -7t32 -3q27 0 42 5t21 10q13 10 18 24t5 30h84v-24q0 -27 -11 -50t-35 -40q-17 -12 -47 -21t-77 -9q-34 0 -59 5.5t-43 14
t-30 19.5t-20 22q-18 26 -18 60v23v45v202v1v25q0 12 4 32t21 40t51 34.5t94 14.5zM256 384v9q0 9 -2.5 19.5t-11.5 20t-25.5 16t-43.5 6.5q-28 0 -45.5 -6.5t-27 -15.5t-12.5 -19.5t-3 -19.5v-10v-1v-8v-85q1 9 8.5 14.5t16.5 9t18 4.5t14 1h57q23 0 40 16.5t17 39.5v8v1z
" />
    <glyph glyph-name="edieresis" unicode="&#xeb;" 
d="M126 574h-85v100h85v-100zM297 574h-85v100h85v-100zM170 530q60 0 94 -14.5t51 -34.5t21 -40.5t4 -31.5v-25v-1v-22q0 -17 -6 -38t-30 -45q-12 -12 -25.5 -18t-24.5 -9q-13 -4 -27 -4h-76q-27 0 -46.5 -19t-19.5 -47v-45q0 -24 9 -38q4 -7 9 -12t14 -9q8 -4 21 -7t32 -3
q27 0 42 5.5t21 9.5q13 10 18 24t5 30h84v-24q0 -27 -11 -50t-35 -40q-17 -12 -47 -21t-77 -9q-34 0 -59 5.5t-43 14t-30 19.5t-20 22q-18 26 -18 60v23v45v202v1v25q0 12 4 32t21 40t51 34.5t94 14.5zM256 384v9q0 9 -2.5 19.5t-11.5 20t-25.5 16t-43.5 6.5
q-28 0 -45.5 -6.5t-27 -15.5t-12.5 -19.5t-3 -19.5v-10v-1v-8v-85q1 9 8.5 14.5t16.5 9t18 4.5t13 1h58q23 0 40 16.5t17 39.5v8v1z" />
    <glyph glyph-name="igrave" unicode="&#xec;" horiz-adv-x="313" 
d="M215 556q-13 1 -25 4q-11 2 -20.5 5t-14.5 7q-4 4 -26 25t-47.5 47t-49 49.5t-32.5 31.5l112 1q2 -4 8 -13t13.5 -22t16.5 -28l18 -30q21 -35 47 -77zM149 522v-522h-84v522h84z" />
    <glyph glyph-name="iacute" unicode="&#xed;" horiz-adv-x="312" 
d="M214 725l-18 -18l-29 -29t-33.5 -34t-33 -33t-26.5 -25.5t-14 -13.5q-5 -4 -14 -7t-20 -5q-12 -3 -26 -4q26 42 47 77l18 30t16.5 28t13.5 22t8 13zM67 522h84v-522h-84v522z" />
    <glyph glyph-name="idieresis" unicode="&#xef;" horiz-adv-x="354" 
d="M0 674h85v-100h-85v100zM256 674v-100h-85v100h85zM85 522h84v-522h-84v522z" />
    <glyph glyph-name="fi" unicode="&#xfb01;" horiz-adv-x="503" 
d="M405 522v-522h-84v451h-172v-451h-84v451h-65v71h65v70v19q0 9 2 23.5t10.5 30.5t25 30.5t44.5 24.5q17 6 38 9.5t49 3.5q60 0 94 -14.5t51 -34.5t21 -40.5t4 -31.5v-25h-85v9q0 7 -1.5 15t-6 16t-13 15t-22.5 11q-9 2 -19.5 3.5t-24.5 1.5q-27 0 -43.5 -6.5t-25.5 -16.5
t-11.5 -20.5t-2.5 -19.5v-9v-64h172h84z" />
    <glyph glyph-name="fl" unicode="&#xfb02;" horiz-adv-x="502" 
d="M404 587v-587h-85v587v9q0 7 -1.5 15t-6 16t-13 15t-22.5 11q-18 5 -43 5q-28 0 -44.5 -6.5t-25 -16.5t-11 -20.5t-2.5 -19.5v-9v-64h84v-71h-84v-451h-85v451h-65v71h65v70v19q0 9 2 23.5t10.5 30.5t25 30.5t45.5 24.5q17 6 38 9.5t48 3.5q60 0 94 -14.5t51 -34.5
t21 -40.5t4 -31.5v-25z" />
    <glyph glyph-name="ae" unicode="&#xe6;" horiz-adv-x="693" 
d="M425 530q60 0 94 -15t51 -35t21 -40.5t4 -31.5v-25v-23q0 -17 -6 -38t-30 -45q-11 -11 -25 -17.5t-25 -9.5q-13 -4 -27 -3h-76q-27 0 -46.5 -19.5t-19.5 -46.5v-40v-5q0 -14 2.5 -23t6.5 -15q4 -7 9 -12q5 -6 14 -10q8 -4 21 -7t32 -3q27 0 42 5.5t21 10.5q13 10 18 23.5
t5 29.5h84v-23q0 -27 -11 -50.5t-35 -40.5q-17 -12 -47 -20.5t-77 -8.5t-77.5 9.5t-49.5 23.5q-20 -14 -50.5 -23.5t-77.5 -9.5q-53 0 -86 12t-52 30t-25.5 39.5t-6.5 39.5v46q0 38 19 69.5t56 43.5q18 6 41 14t44.5 15.5t37.5 13.5t20 7q4 2 10.5 5.5t12.5 10.5t10 16t4 21
v19q0 10 -4 21t-13.5 20t-26 14.5t-41.5 5.5q-50 0 -68 -21t-18 -49h-84v23q0 25 9.5 47.5t30.5 39t53 26t77 9.5q43 0 74.5 -9t52.5 -25q19 14 49.5 24t78.5 10zM170 66q50 0 67.5 19.5t17.5 55.5v40v84q-2 -10 -9.5 -15t-15.5 -8q-15 -5 -32 -11t-32 -11q-18 -6 -35 -12
q-12 -5 -23 -15q-9 -8 -16.5 -20.5t-7.5 -31.5q0 -37 18.5 -56t67.5 -19zM511 392q0 9 -2.5 19.5t-11.5 20.5t-25.5 16.5t-43.5 6.5q-28 0 -45.5 -6.5t-27 -15.5t-12.5 -19.5t-3 -19.5v-11v-8v-85q1 9 8.5 14.5t16.5 8.5t18 4t14 1h57q23 0 40 16.5t17 40.5v8v9z" />
    <glyph glyph-name="oe" unicode="&#x153;" horiz-adv-x="693" 
d="M425 530q60 0 94 -14.5t51 -34.5t21 -40.5t4 -31.5v-25v-1v-22q0 -17 -6 -38t-30 -45q-12 -12 -25.5 -18t-24.5 -9q-13 -4 -27 -4h-77q-25 0 -44 -17.5t-21 -43.5v-56q1 -11 4 -20t6 -14q4 -6 8 -10q5 -5 14 -9q8 -4 21 -7t32 -3q27 0 41.5 5t20.5 10q14 10 18.5 24
t4.5 30h85v-24q0 -27 -11 -50t-36 -40q-17 -12 -46.5 -21t-76.5 -9q-48 0 -78 10t-49 24q-19 -15 -49.5 -24.5t-78.5 -9.5q-60 0 -94 14.5t-51 34.5t-21 40.5t-4 31.5v11h-1v285h1q0 11 4 31.5t21 40.5t51 34.5t94 14.5q47 0 77.5 -9.5t49.5 -23.5q19 14 49.5 23.5t78.5 9.5
zM167 67q26 0 43 5.5t26.5 14t13.5 18t5 17.5v14v45v202v1v16q-1 9 -5 18.5t-13.5 17.5t-26.5 13.5t-43 5.5q-27 0 -43.5 -6.5t-25.5 -16t-11.5 -20t-2.5 -19.5v-10v-244v-9q0 -9 2.5 -19.5t11.5 -20.5t25.5 -16.5t43.5 -6.5zM510 384v9q0 9 -2.5 19.5t-11 20t-25 16
t-44.5 6.5q-26 0 -42.5 -5.5t-26.5 -13.5t-13.5 -17.5t-4.5 -18.5v-108q2 8 9 13.5t16 8.5t18 4t13 1h58q23 0 39.5 16.5t16.5 39.5v8v1z" />
    <glyph glyph-name="circumflex" unicode="&#x2c6;" horiz-adv-x="359" 
d="M171 672q-10 -15 -21.5 -31.5t-21 -30.5t-17 -23.5t-9.5 -11.5q-5 -4 -14 -7t-20 -5q-12 -3 -26 -4l103 169h26h27l102 -169q-13 1 -25 4q-11 2 -20.5 5t-14.5 7q-2 2 -8.5 11t-16 23t-21 30.5t-23.5 32.5z" />
    <glyph glyph-name="period" unicode="." horiz-adv-x="184" 
d="M0 0v88h86v-88h-86v0z" />
    <glyph glyph-name="dieresis" unicode="&#xa8;" horiz-adv-x="393" 
d="M124 574h-84v100h84v-100zM295 574h-84v100h84v-100z" />
    <glyph glyph-name="ellipsis" unicode="&#x2026;" horiz-adv-x="472" 
d="M0 88h86v-88h-86v88zM145 88h86v-88h-86v88zM288 88h86v-88h-86v88z" />
    <glyph glyph-name="plus" unicode="+" horiz-adv-x="416" 
d="M340 285v-71h-340v71h71h269zM137 417h71v-340h-71v71v269z" />
    <glyph glyph-name="ccedilla" unicode="&#xe7;" 
d="M255 385v9q0 10 -4 21t-13.5 20t-26 14.5t-41.5 5.5q-50 0 -68 -21t-18 -49v-244q0 -37 18.5 -55.5t67.5 -18.5q50 0 67.5 19t17.5 55h85v-28q0 -18 -6 -38.5t-23.5 -38t-47.5 -30t-78 -14.5l-33 -41l2 -2q10 7 33 7q33 0 58 -18q26 -17 26 -55q0 -25 -11 -42
q-13 -18 -30 -28q-18 -11 -40 -15q-11 -2 -21.5 -3t-21.5 -1q-12 0 -23.5 1.5t-22.5 3.5q-11 3 -22.5 6.5t-23.5 7.5l18 44q11 -4 29 -9q15 -4 32 -4h10q6 0 11 1q11 1 20 6q9 4 15 9q6 6 6 15q0 15 -13 22q-13 9 -34 9q-6 0 -11 -0.5t-10 -1.5q-7 -1 -20 -6l-17 28l52 67
q-44 3 -72 15.5t-43.5 30t-21.5 37.5t-6 37v46v226v23q0 25 9.5 47.5t30 39t53 26t77.5 9.5q88 0 129 -35t41 -87v-23h-85z" />
    <glyph glyph-name="colon" unicode=":" horiz-adv-x="184" 
d="M0 88h86v-88h-86v88zM0 520h86v-88h-86v88z" />
    <glyph glyph-name="semicolon" unicode=";" horiz-adv-x="185" 
d="M0 522h86v-88h-86v88zM1 88h86v-88q0 -51 -21.5 -80.5t-65.5 -29.5v29q33 3 39.5 26.5t3.5 54.5h-42v88z" />
    <glyph glyph-name="semicolon" unicode="&#x37e;" horiz-adv-x="185" 
d="M0 522h86v-88h-86v88zM1 88h86v-88q0 -51 -21.5 -80.5t-65.5 -29.5v29q33 3 39.5 26.5t3.5 54.5h-42v88z" />
    <glyph glyph-name="quotedblbase" unicode="&#x201e;" horiz-adv-x="319" 
d="M0 88h86v-88q0 -51 -21.5 -80t-65.5 -29v28q17 1 26 8.5t13.5 18.5t5 25.5t-0.5 29.5h-28q-8 0 -15 -1v88zM135 88h86v-88q0 -51 -21.5 -80t-65.5 -29v28q17 1 26 8.5t13.5 18.5t5 25.5t-1.5 29.5h-27q-8 0 -15 -1v88z" />
    <glyph glyph-name="grave" unicode="`" horiz-adv-x="353" 
d="M195 572q-4 4 -26 25t-47.5 47t-49 49.5l-32.5 32.5h112q2 -4 8 -13t13.5 -21.5l16.5 -27.5l18 -30q21 -35 47 -78q-13 1 -25 4q-11 2 -20.5 5t-14.5 7z" />
    <glyph glyph-name="acute" unicode="&#xb4;" horiz-adv-x="398" 
d="M300 726l-32.5 -32.5t-49 -49.5t-47 -47t-26.5 -25t-14 -7t-20 -5q-12 -3 -26 -4q26 43 47 78l18 30l16.5 27.5t13.5 21.5t8 13h112v0z" />
    <glyph glyph-name="cedilla" unicode="&#xb8;" horiz-adv-x="171" 
d="M-14 735h87v-88q0 -51 -21.5 -80t-65.5 -29v28q17 2 26 9t13.5 18t5 25t-1.5 29h-43v88z" />
    <glyph glyph-name="ograve" unicode="&#xf2;" 
d="M340 129v-16q0 -12 -4 -32t-21 -40t-51 -34.5t-94 -14.5t-94 14.5t-51 34.5t-21 40.5t-4 31.5v11v285q0 11 4 31.5t21 40.5t51 34.5t94 14.5t94 -14.5t51 -34.5t21 -40t4 -32v-280zM255 139v244v11q0 9 -3 19.5t-12.5 19.5t-26.5 15.5t-46 6.5q-27 0 -43.5 -6.5
t-25.5 -16t-11.5 -20.5t-2.5 -19v-10v-244v-10q0 -8 2.5 -19t11.5 -20.5t25.5 -16t43.5 -6.5q29 0 46 6.5t26.5 15.5t12.5 19.5t3 19.5v11zM195 572q-4 4 -26 25t-47.5 47t-49 49.5l-32.5 32.5h112q2 -4 8 -13t13.5 -21.5l16.5 -27.5l18 -30q21 -35 47 -78q-13 1 -25 4
q-11 2 -20.5 5t-14.5 7z" />
    <glyph glyph-name="ugrave" unicode="&#xf9;" 
d="M340 132v-18q0 -12 -4 -32t-21 -40t-51 -34.5t-94 -14.5t-94 14.5t-51 34.5t-21 40.5t-4 31.5v11v398h84v-383h1v-10q0 -8 2.5 -19t11 -20.5t25 -16t44.5 -6.5q29 0 46 6.5t26 15.5t12 19.5t3 19.5v11h1v383h84v-391zM195 572q-4 4 -26 25t-47.5 47t-49 49.5l-32.5 32.5
h112q2 -4 8 -13t13.5 -21.5l16.5 -27.5l18 -30q21 -35 47 -78q-13 1 -25 4q-11 2 -20.5 5t-14.5 7z" />
    <glyph glyph-name="uacute" unicode="&#xfa;" 
d="M340 132v-18q0 -12 -4 -32t-21 -40t-51 -34.5t-94 -14.5t-94 14.5t-51 34.5t-21 40.5t-4 31.5v11v398h84v-383h1v-10q0 -8 2.5 -19t11 -20.5t25 -16t44.5 -6.5q29 0 46 6.5t26 15.5t12 19.5t3 19.5v11h1v383h84v-391zM300 726l-32.5 -32.5t-49 -49.5t-47 -47t-26.5 -25
t-14 -7t-20 -5q-12 -3 -26 -4q26 43 47 78l18 30l16.5 27.5t13.5 21.5t8 13h112v0z" />
    <glyph glyph-name="dollar" unicode="$" horiz-adv-x="500" 
d="M340 114q0 -11 -4 -30.5t-19 -38.5t-45.5 -34t-83.5 -18v-48h-35v48q-54 2 -84.5 17t-46 34.5t-19 39t-3.5 30.5v25h84v-9q0 -8 2.5 -18t9.5 -19t21 -16t36 -9v244l-22 8t-22 7q-4 2 -6 2q-57 17 -80 49t-23 68v6v18v122v21q0 11 3.5 30t19 38.5t46 34.5t84.5 17v49h35
v-49q53 -2 83.5 -17t45.5 -34.5t19 -38.5t4 -30v-26h-85v11q0 8 -2.5 17.5t-9.5 18t-20 15.5t-35 9v-273q11 -5 22 -8.5t22 -7.5q17 -4 34 -12q18 -6 31.5 -17.5t23.5 -26.5q19 -28 19 -62v-12v-100v-25zM84 470v-9q0 -13 7.5 -29t33.5 -25q4 -2 10 -4l12 -4q2 -1 3 -1t3 -1
v261q-22 -2 -36 -9t-21 -16t-9.5 -19t-2.5 -18v-9v-117zM255 139v88v10q0 12 -7 28.5t-33 25.5q-5 2 -12.5 4.5t-14.5 4.5v-231q22 2 35 9t20 15.5t9.5 18t2.5 16.5v11z" />
    <glyph glyph-name="guillemotright" unicode="&#xbb;" horiz-adv-x="552" 
d="M367 185l-65 -74h-100l153 172l-153 172h100l65 -74l87 -98zM165 185l-65 -74h-100l153 172l-153 172h100l65 -74l88 -98z" />
    <glyph glyph-name="guillemotleft" unicode="&#xab;" horiz-adv-x="552" 
d="M0 283l152 172h100l-153 -172l153 -172h-100zM201 283l153 172h100l-153 -172l153 -172h-100z" />
    <glyph glyph-name="greater" unicode="&#x3e;" horiz-adv-x="607" 
d="M389 230l-389 -172v79l332 146l-332 148v78l389 -173l120 -53z" />
    <glyph glyph-name="less" unicode="&#x3c;" horiz-adv-x="607" 
d="M0 283l120 53l389 173v-78l-332 -148l332 -146v-79l-389 172z" />
    <glyph glyph-name="ydieresis" unicode="&#xff;" 
d="M128 573h-85v100h85v-100zM299 572h-85v101h85v-101zM340 -78v-14q0 -12 -4 -32t-21 -40t-51 -34.5t-94 -14.5t-94 14.5t-51 34.5t-21 40.5t-4 31.5v26h84v-10q0 -9 2.5 -19.5t11.5 -20t25.5 -16t44.5 -6.5q29 0 46 6.5t26 15.5t12 19.5t3 18.5v2v18q0 12 -4 21t-10 16
t-12.5 10.5t-10.5 5.5q-4 1 -20 7t-37.5 13.5t-44.5 15.5t-41 14q-36 13 -55.5 44t-19.5 69v23v340h85v-340v-5q0 -19 7.5 -31.5t16.5 -20.5q11 -10 23 -15q16 -6 34 -12q15 -5 32.5 -11t32.5 -11q7 -2 14.5 -7t9.5 -16v124v5h1v340h84v-599z" />
    <glyph glyph-name="Adieresis" unicode="&#xc4;" 
d="M127 762h-85v101h85v-101zM298 762h-84v101h84v-101zM340 0h-84v335q-5 -2 -9.5 -3.5t-9.5 -3.5q-2 0 -6 -2q-15 -5 -32.5 -11t-32.5 -11q-18 -6 -34 -12q-12 -3 -23 -10q-9 -6 -16.5 -15.5t-7.5 -24.5v-1v-241h-85v586v26q0 11 4 31.5t21 40.5t51 34.5t94 14.5t94 -14.5
t51 -34.5t21 -40.5t4 -31.5v-21v-591zM85 360q9 3 22 8t28 10t30 10.5t27 9.5q6 2 12.5 4t10.5 4q26 9 33.5 25t7.5 29v9v117v11q0 9 -3 19.5t-12.5 19.5t-26.5 15.5t-46 6.5q-28 0 -44.5 -6.5t-25 -16.5t-11 -20.5t-2.5 -19.5v-9v-226v0z" />
    <glyph glyph-name="Edieresis" unicode="&#xcb;" horiz-adv-x="407" 
d="M127 762h-85v101h85v-101zM298 762h-84v101h84v-101zM309 0h-195q-29 0 -50.5 10.5t-35.5 27t-21 36.5t-7 39v20v6v447v6v20q0 19 7 39t21 36.5t35.5 27t50.5 10.5h195v-70h-107h-61q-26 0 -41 -17.5t-15 -42.5v-9v-184h181v-79h-181v-184v-10q0 -24 15 -41.5t41 -17.5
h61h107v-70z" />
    <glyph glyph-name="Idieresis" unicode="&#xcf;" horiz-adv-x="296" 
d="M0 763v101h85v-101h-85v0zM172 864h84v-101h-84v101v0zM86 0v726h85v-726h-85v0z" />
    <glyph glyph-name="Agrave" unicode="&#xc0;" 
d="M175 914q2 -4 8 -13t13.5 -21.5l16.5 -27.5l18 -30q21 -35 47 -78q-14 1 -26 4q-11 2 -20 5t-14 7q-4 4 -26 25t-47.5 47t-49 49.5l-32.5 32.5h112zM340 591v21q0 11 -4 31.5t-21 40.5t-51 34.5t-94 14.5t-94 -14.5t-51 -34.5t-21 -40.5t-4 -31.5v-26v-586h84v241v1
q0 15 7.5 24.5t16.5 15.5q11 7 23 10q16 6 34 12q15 5 32.5 11t32.5 11q4 2 6 2q12 3 19 7v-335h85v591zM84 360v226v9q0 9 2.5 19.5t11.5 20.5t25.5 16.5t43.5 6.5q29 0 46 -6.5t26.5 -15.5t12.5 -19.5t3 -19.5v-11v-117v-9q0 -13 -7 -29t-33 -25q-5 -2 -11 -4l-12 -4
q-12 -4 -27 -9.5t-30 -10.5t-28.5 -10t-22.5 -8z" />
    <glyph glyph-name="Aacute" unicode="&#xc1;" horiz-adv-x="439" 
d="M278 914l-32.5 -32.5t-49 -49.5t-47 -47t-25.5 -25q-5 -4 -14 -7t-20 -5q-12 -3 -26 -4q26 43 47 78l18 30l16.5 27.5t13.5 21.5t8 13h111zM341 591v-591h-85v335q-7 -4 -19 -7q-2 0 -6 -2q-15 -5 -32.5 -11t-32.5 -11q-18 -6 -34 -12q-12 -3 -23 -10q-9 -6 -16.5 -15.5
t-7.5 -24.5v-1v-241h-85v586v26q0 11 4 31.5t21 40.5t51 34.5t94 14.5t94 -14.5t51 -34.5t21 -40.5t4 -31.5v-21h1zM85 360q9 3 22.5 8t28.5 10t30 10.5t27 9.5l12 4t11 4q25 9 32.5 25t7.5 29v9v117v11q0 9 -3 19.5t-12.5 19.5t-26.5 15.5t-46 6.5q-27 0 -43.5 -6.5
t-25.5 -16.5t-11.5 -20.5t-2.5 -19.5v-9v-226v0z" />
    <glyph glyph-name="Acircumflex" unicode="&#xc2;" 
d="M300 745q-13 1 -25 4q-11 2 -20.5 4.5t-14.5 6.5q-2 2 -9 11.5t-16.5 23.5t-21 30.5t-22.5 32.5q-11 -15 -22.5 -31.5t-21 -31t-17 -24t-9.5 -11.5q-5 -4 -14 -6.5t-20 -4.5q-12 -3 -26 -4l103 169h27h26l103 -169v0zM340 0h-84v335q-5 -2 -9.5 -3.5t-9.5 -3.5
q-2 0 -6 -2q-15 -5 -32.5 -11t-32.5 -11q-18 -6 -34 -12q-12 -3 -23 -10q-9 -6 -16.5 -15.5t-7.5 -24.5v-1v-241h-85v586v26q0 11 4 31.5t21 40.5t51 34.5t94 14.5t94 -14.5t51 -34.5t21 -40.5t4 -31.5v-21v-591zM85 360q9 3 22 8t28 10t30 10.5t27 9.5q6 2 12.5 4t10.5 4
q26 9 33.5 25t7.5 29v9v117v11q0 9 -3 19.5t-12.5 19.5t-26.5 15.5t-46 6.5q-28 0 -44.5 -6.5t-25 -16.5t-11 -20.5t-2.5 -19.5v-9v-226v0z" />
    <glyph glyph-name="Atilde" unicode="&#xc3;" horiz-adv-x="439" 
d="M80 805q-5 -7 -7.5 -16.5t-4.5 -23.5h-60q3 57 25 85q23 29 66 29q36 0 65 -19l30 -18q28 -17 42 -17q17 0 26 14q10 14 11 40h60q-3 -58 -25 -86t-65 -28q-37 0 -66 19l-29 18q-26 16 -42 16q-17 0 -26 -13zM341 0h-85v335q-5 -2 -9.5 -3t-9.5 -3q-2 0 -6 -2
q-15 -5 -32.5 -11t-32.5 -11q-18 -6 -34 -12q-12 -3 -23 -10q-9 -6 -16.5 -15.5t-7.5 -24.5v-1v-242h-85v587v25q0 11 4 31.5t21 40.5t51 34.5t94 14.5t94 -14.5t51.5 -34.5t21.5 -40t4 -32v-20v-592zM85 361l22.5 7.5t28.5 10l30 11t27 9.5l12 4t11 4q26 9 33 25t7 29v9
v117v11q0 8 -3 18.5t-12.5 20t-26.5 16t-46 6.5q-27 0 -43.5 -6.5t-25.5 -16.5t-11.5 -20.5t-2.5 -19.5v-9v-226v0z" />
    <glyph glyph-name="Egrave" unicode="&#xc8;" horiz-adv-x="407" 
d="M176 915q2 -4 8 -13t13.5 -22t16.5 -28l18 -30q21 -35 47 -77q-14 1 -26 4q-11 2 -20 5t-14 7q-3 3 -14 13.5t-26.5 25.5t-33 32.5t-33.5 34t-29 29t-19 18.5zM309 71h-107h-61q-26 0 -41.5 17.5t-15.5 41.5v9v184h181v79h-181v185v9q0 24 15.5 41.5t41.5 17.5h61h107v71
h-196q-28 0 -49.5 -10.5t-35.5 -27t-21 -37t-7 -39.5v-19v-6v-448v-5v-20q0 -19 7 -39.5t21 -37t35.5 -27t49.5 -10.5h196v71z" />
    <glyph glyph-name="Eacute" unicode="&#xc9;" horiz-adv-x="407" 
d="M279 914q-6 -6 -19 -18.5t-29 -29t-33.5 -34t-33 -32.5t-26.5 -25.5t-14 -13.5q-5 -4 -14 -7t-20 -5q-12 -3 -26 -4q26 42 47 77l18 30t16.5 28t13.5 22t8 13zM309 0h-195q-29 0 -50.5 10.5t-35.5 27t-21 37t-7 39.5v20v5v448v6v19q0 19 7 39.5t21 37t35.5 27t50.5 10.5
h195v-71h-107h-61q-26 0 -41 -17.5t-15 -41.5v-9v-185h181v-79h-181v-184v-9q0 -24 15 -41.5t41 -17.5h61h107v-71z" />
    <glyph glyph-name="Ecircumflex" unicode="&#xca;" horiz-adv-x="407" 
d="M300 745q-13 1 -25 4q-11 2 -20.5 5t-14.5 7q-2 2 -9 11.5t-16.5 23.5t-21 30.5t-22.5 31.5q-11 -15 -22.5 -31.5t-21 -30.5t-17 -23.5t-9.5 -11.5q-5 -4 -14 -7t-20 -5q-12 -3 -26 -4l103 170h27h26l103 -170v0zM309 0h-196q-28 0 -49.5 10.5t-35.5 27t-21 37t-7 39.5
v20v5v448v6v19q0 19 7 39.5t21 37t35.5 27t49.5 10.5h196v-71h-107h-61q-26 0 -41.5 -17.5t-15.5 -41.5v-9v-185h181v-79h-181v-184v-9q0 -24 15.5 -41.5t41.5 -17.5h61h107v-71z" />
    <glyph glyph-name="Igrave" unicode="&#xcc;" horiz-adv-x="253" 
d="M110 915q2 -4 8 -13t13.5 -21.5l16.5 -27.5l18 -30q21 -35 47 -77q-13 1 -25 4q-11 2 -20.5 4.5t-14.5 6.5l-14 14t-26.5 26t-33 32.5l-33.5 33.5l-29 29l-19 19h112zM63 1h84v726h-84v-726z" />
    <glyph glyph-name="Iacute" unicode="&#xcd;" horiz-adv-x="255" 
d="M215 914l-19 -19l-29 -29l-33.5 -33.5t-33 -32.5t-26.5 -26l-14 -14q-5 -4 -14 -6.5t-20 -4.5q-12 -3 -26 -4q26 42 47 77l18 30l16.5 27.5t13.5 21.5t8 13h112zM64 726h85v-726h-85v726z" />
    <glyph glyph-name="Icircumflex" unicode="&#xce;" horiz-adv-x="298" 
d="M258 745q-13 1 -25 4q-11 2 -20.5 5t-14.5 7q-2 2 -8.5 11t-16 23t-21 30.5t-23.5 32.5q-10 -15 -21.5 -31.5t-21 -30.5t-17 -23.5t-9.5 -11.5q-5 -4 -14 -7t-20 -5q-12 -3 -26 -4l103 169v1l26 -1l27 1v-1l102 -169v0zM87 726h84v-726h-84v726z" />
    <glyph glyph-name="Ograve" unicode="&#xd2;" 
d="M218 760q-4 4 -26 25t-47.5 47t-49 49.5l-32.5 32.5h112q2 -4 8 -13t13.5 -21.5l16.5 -27.5l18 -30q21 -35 47 -78q-13 1 -25 4q-11 2 -20.5 5t-14.5 7zM340 123v-10q0 -12 -4 -32t-21 -40t-51 -34.5t-94 -14.5t-94 14.5t-51 34.5t-21 40.5t-4 31.5v25v448v26
q0 11 4 31.5t21 40.5t51 34.5t94 14.5t94 -14.5t51 -34.5t21 -40.5t4 -31.5v-10v-479zM255 138h1v448h-1v11q0 9 -3 19.5t-12 19.5t-26 15.5t-46 6.5q-28 0 -44.5 -6.5t-25.5 -16.5t-11.5 -20.5t-2.5 -19.5v-9v-448v-9q0 -9 2.5 -19.5t11.5 -20t25.5 -16t44.5 -6.5
q29 0 46 6.5t26 15.5t12 19.5t3 18.5v11z" />
    <glyph glyph-name="Oacute" unicode="&#xd3;" 
d="M277 915l-32.5 -32.5t-49 -49.5t-47 -47t-25.5 -25q-5 -4 -14 -7t-20 -5q-12 -3 -26 -4q26 43 47 78l18 30l16.5 27.5t13.5 21.5t8 13h111v0zM340 124v-10q0 -12 -4 -32t-21 -40t-51 -34.5t-94 -14.5t-94 14.5t-51 34.5t-21 40.5t-4 31.5v25v448v26q0 11 4 31.5t21 40.5
t51 34.5t94 14.5t94 -14.5t51 -34.5t21 -40.5t4 -31.5v-10v-479zM255 139v448v11q0 9 -3 19.5t-12.5 19.5t-26.5 15.5t-46 6.5q-27 0 -43.5 -6.5t-25.5 -16.5t-11.5 -20.5t-2.5 -19.5v-9v-448v-9q0 -9 2.5 -19.5t11.5 -20t25.5 -16t43.5 -6.5q29 0 46 6.5t26.5 15.5
t12.5 19.5t3 18.5v11z" />
    <glyph glyph-name="Ocircumflex" unicode="&#xd4;" horiz-adv-x="439" 
d="M171 859q-11 -15 -22.5 -31.5t-21 -31t-17 -24t-9.5 -11.5q-5 -4 -14 -6.5t-20 -4.5q-12 -3 -26 -4l103 169h27h26l103 -169q-13 1 -25 4q-11 2 -20.5 4.5t-14.5 6.5q-2 2 -9 11.5t-16.5 23.5t-21 30.5t-22.5 32.5zM341 124h-1v-10q0 -12 -4 -32t-21 -40t-51 -34.5
t-94 -14.5t-94 14.5t-51 34.5t-21 40.5t-4 31.5v25v448v26q0 11 4 31.5t21 40.5t51 34.5t94 14.5t94 -14.5t51 -34.5t21 -40.5t4 -31.5v-10h1v-479zM256 139v448v11q0 9 -3 19.5t-12.5 19.5t-26.5 15.5t-46 6.5q-27 0 -43.5 -6.5t-25.5 -16.5t-11.5 -20.5t-2.5 -19.5v-9
v-448v-9q0 -9 2.5 -19.5t11.5 -20t25.5 -16t43.5 -6.5q29 0 46 6.5t26.5 15.5t12.5 19.5t3 18.5v11z" />
    <glyph glyph-name="Otilde" unicode="&#xd5;" horiz-adv-x="439" 
d="M171 859q-11 -15 -22.5 -31.5t-21 -31t-17 -24t-9.5 -11.5q-5 -4 -14 -6.5t-20 -4.5q-12 -3 -26 -4l103 169h27h26l103 -169q-13 1 -25 4q-11 2 -20.5 4.5t-14.5 6.5q-2 2 -9 11.5t-16.5 23.5t-21 30.5t-22.5 32.5zM341 124h-1v-10q0 -12 -4 -32t-21 -40t-51 -34.5
t-94 -14.5t-94 14.5t-51 34.5t-21 40.5t-4 31.5v25v448v26q0 11 4 31.5t21 40.5t51 34.5t94 14.5t94 -14.5t51 -34.5t21 -40.5t4 -31.5v-10h1v-479zM256 139v448v11q0 9 -3 19.5t-12.5 19.5t-26.5 15.5t-46 6.5q-27 0 -43.5 -6.5t-25.5 -16.5t-11.5 -20.5t-2.5 -19.5v-9
v-448v-9q0 -9 2.5 -19.5t11.5 -20t25.5 -16t43.5 -6.5q29 0 46 6.5t26.5 15.5t12.5 19.5t3 18.5v11z" />
    <glyph glyph-name="Ucircumflex" unicode="&#xdb;" 
d="M171 858q-11 -15 -22.5 -31.5t-21 -31t-17 -24t-9.5 -11.5q-5 -4 -14 -7t-20 -5q-12 -3 -26 -4l103 170h27h26l103 -170q-13 1 -25 4q-11 2 -20.5 5t-14.5 7q-2 2 -9 11.5t-16.5 23.5t-21 30.5t-22.5 32.5zM340 123v-10q0 -12 -4 -32t-21 -40t-51 -34.5t-94 -14.5
t-94 14.5t-51 34.5t-21 40.5t-4 31.5v25v587h85v-587v-9q0 -9 2.5 -19.5t11.5 -20.5t25.5 -16.5t43.5 -6.5q29 0 46 6.5t26.5 15.5t12.5 19.5t3 19.5v11v587h84v-602z" />
    <glyph glyph-name="Udieresis" unicode="&#xdc;" 
d="M126 762h-84v101h84v-101zM297 762h-84v100h84v-100zM340 123v-10q0 -12 -4 -32t-21 -40t-51 -34.5t-94 -14.5t-94 14.5t-51 34.5t-21 40.5t-4 31.5v25v587h85v-587v-9q0 -9 2.5 -19.5t11 -20.5t25 -16.5t44.5 -6.5q29 0 46 6.5t26.5 15.5t12.5 19.5t3 19.5v11v587h84
v-602z" />
    <glyph glyph-name="Ntilde" unicode="&#xd1;" 
d="M79 805q-10 -14 -11 -40h-60q1 55 25 85q23 29 65 29q37 0 66 -19l29 -18q28 -17 42 -17q17 0 26 14q11 14 12 40h60q-3 -57 -26 -86q-21 -28 -64 -28q-37 0 -66 19l-30 18q-26 16 -42 16t-26 -13zM340 0h-84v587v11q0 9 -3 19.5t-12.5 19.5t-26.5 15.5t-46 6.5
q-28 0 -44.5 -6.5t-25 -16.5t-11 -20.5t-2.5 -19.5v-9h-1v-587h-84v587v25q0 11 4 31.5t21 40.5t51 35t94 15t94 -14.5t51 -34.5t21 -40.5t4 -32.5v-11v-601z" />
    <glyph glyph-name="Odieresis" unicode="&#xd6;" 
d="M126 764h-84v100h84v-100zM298 763h-85v101h85v-101zM340 124v-10q0 -12 -4 -32t-21 -40t-51 -34.5t-94 -14.5t-94 14.5t-51 34.5t-21 40.5t-4 31.5v25v448v26q0 11 4 31.5t21 40.5t51 34.5t94 14.5t94 -14.5t51 -34.5t21 -40.5t4 -31.5v-10v-479zM256 139v448v11
q0 9 -3 19.5t-12.5 19.5t-26.5 15.5t-46 6.5q-28 0 -44.5 -6.5t-25 -16.5t-11 -20.5t-2.5 -19.5v-9v-448v-9q0 -9 2.5 -19.5t11 -20t25 -16t44.5 -6.5q29 0 46 6.5t26.5 15.5t12.5 19.5t3 18.5v11z" />
    <glyph glyph-name="Ugrave" unicode="&#xd9;" 
d="M340 123v-10q0 -12 -4 -32t-21 -40t-51 -34.5t-94 -14.5t-94 14.5t-51 34.5t-21 40.5t-4 31.5v25v587h85v-587v-9q0 -9 2.5 -19.5t11 -20.5t25 -16.5t44.5 -6.5q29 0 46 6.5t26.5 15.5t12.5 19.5t3 19.5v11v587h84v-602zM217 760q-4 4 -26 25t-47.5 47t-49 49.5
t-32.5 31.5l112 1q2 -4 8 -13t13.5 -22t16.5 -28l18 -30q21 -35 47 -77q-13 1 -25 4q-11 2 -20.5 5t-14.5 7z" />
    <glyph glyph-name="Uacute" unicode="&#xda;" 
d="M340 123v-10q0 -12 -4 -32t-21 -40t-51 -34.5t-94 -14.5t-94 14.5t-51 34.5t-21 40.5t-4 31.5v25v587h84v-587h1v-9q0 -9 2.5 -19.5t11 -20.5t25 -16.5t44.5 -6.5q29 0 46 6.5t26.5 15.5t12.5 19.5t3 19.5v11v587h84v-602zM277 913q-9 -8 -32.5 -31.5t-49 -49.5t-47 -47
t-26.5 -25t-14 -7t-20 -5q-12 -3 -26 -4q26 42 47 77l18 30t16.5 28t13.5 22t8 13l112 -1v0z" />
    <glyph glyph-name="Ccedilla" unicode="&#xc7;" 
d="M256 587v11q0 9 -3 19.5t-12.5 19.5t-26.5 15.5t-46 6.5q-27 0 -43.5 -6.5t-25.5 -16.5t-11.5 -20.5t-2.5 -19.5v-9v-448v-9q0 -9 2.5 -19.5t11.5 -20t25.5 -16t43.5 -6.5q29 0 46 6.5t26.5 15.5t12.5 19.5t3 18.5v11h84v-25q0 -11 -3.5 -30.5t-19 -39t-46.5 -34.5
t-85 -17h-1l-32 -41l2 -2q10 7 33 7q33 0 58 -18q26 -18 26 -55q0 -25 -11 -42q-13 -18 -30 -28q-18 -11 -40 -15q-20 -4 -43 -4q-12 0 -23.5 1.5t-22.5 3.5q-11 3 -23 6.5t-23 7.5l18 44q11 -4 29 -9q15 -4 32 -4h10q6 0 11 1q11 2 20 6t15 9q6 6 6 15q0 15 -13 22
q-13 9 -34 9q-6 0 -11 -0.5t-10 -1.5q-10 -2 -20 -6l-17 28l52 67q-50 3 -79 18.5t-43.5 34.5t-18 38t-3.5 29v25v448v25q0 11 4 31.5t21 40.5t51 35t94 15t94 -14.5t51 -34.5t21 -40.5t4 -32.5v-25h-84z" />
    <glyph glyph-name="AE" unicode="&#xc6;" horiz-adv-x="662" 
d="M564 0h-195q-29 0 -50.5 10.5t-35.5 27t-21 37t-7 39.5v25v196q-7 -4 -19 -7l-6 -2q-15 -5 -32.5 -11t-32.5 -11q-18 -6 -34 -12q-12 -3 -23 -10q-9 -6 -16.5 -15.5t-7.5 -24.5v-1v-241h-84v586v25q0 11 4 31.5t21 40.5t51 35t94 15q47 0 77 -9.5t49 -23.5q14 11 32 18
t41 7h195v-70h-107h-60q-26 0 -41.5 -17.5t-15.5 -41.5v-10v-117v-24v-3v-40h181v-79h-181v-184v-9q0 -25 15.5 -42.5t41.5 -17.5h60h107v-70zM84 360l22.5 7.5t28.5 10l30 11t27 9.5l12 4t11 4q25 9 32.5 24t7.5 28v128v11q0 9 -3 19.5t-12.5 19.5t-26.5 15.5t-46 6.5
q-27 0 -43.5 -6.5t-25.5 -16.5t-11.5 -20.5t-2.5 -19.5v-9v-226v0z" />
    <glyph glyph-name="OE" unicode="&#x152;" horiz-adv-x="663" 
d="M369 1q-23 0 -40.5 6.5t-31.5 17.5q-19 -14 -49 -23t-78 -9q-60 0 -94 14.5t-51 34.5t-21 40.5t-4 31.5v25v448v25q0 11 4 31.5t21 40.5t51 35t94 15q47 0 77.5 -9t49.5 -23q29 24 72 24h31t60 0.5t63 0.5h42v-71h-108h-60q-25 0 -40 -16t-17 -39v-198h181v-79h-181v-197
q2 -23 17 -39.5t40 -16.5h60h108v-70h-196zM168 68q27 0 44 5.5t26.5 14t13 18.5t4.5 19v15v448v13q-1 9 -4.5 19t-13 18.5t-26.5 14.5t-44 6q-28 0 -44.5 -6.5t-25 -16.5t-11 -20.5t-2.5 -19.5v-9v-448v-9q0 -9 2.5 -19.5t11 -20t25 -16t44.5 -6.5z" />
    <glyph glyph-name="atilde" unicode="&#xe3;" 
d="M79 616q-11 -14 -12 -40h-60q3 57 25 85q23 29 65 29q37 0 66 -19l30 -18q28 -17 42 -17q15 0 26 14q10 14 11 40h60q-3 -58 -25 -86t-65 -28q-37 0 -66 19l-29 18q-26 16 -42 16q-17 0 -26 -13zM170 530q88 0 129 -34.5t41 -86.5v-47v-220v-28q0 -19 -6.5 -40t-25.5 -39
t-52 -30t-86 -12t-86 12t-52 30t-25.5 39t-6.5 40v46q0 38 19 69t56 44q18 6 41 14t44.5 15.5t37.5 13.5t20 7q4 2 10 5.5t12 10.5t10.5 16t4.5 21v19q0 10 -4 21t-13.5 20t-26 14.5t-41.5 5.5q-50 0 -68 -21t-18 -49h-84v23q0 25 9.5 47t30.5 38.5t53 26t77 9.5zM255 266
q-2 -11 -9.5 -16t-15.5 -7q-15 -5 -32.5 -11t-32.5 -11q-18 -6 -34 -12q-12 -5 -23 -15q-9 -8 -16.5 -20.5t-7.5 -31.5q0 -38 18.5 -56.5t67.5 -18.5q50 0 67.5 19.5t17.5 55.5v124z" />
    <glyph glyph-name="parenleft" unicode="(" horiz-adv-x="294" 
d="M224 -222h-74q-11 20 -30 56t-40 85q-17 42 -31 82t-24 79q-26 101 -26 185t26 185q10 38 24 78.5t31 82.5q21 48 40 84t30 56h74l-11 -18l-6.5 -11.5t-17 -31t-24 -47.5t-27.5 -61q-13 -30 -25 -67t-21.5 -78t-15.5 -84.5t-6 -87.5q0 -43 6 -87t15.5 -85t21.5 -78
t25 -67q14 -33 27.5 -61t24 -47.5t17 -31l6.5 -11.5z" />
    <glyph glyph-name="yen" unicode="&#xa5;" horiz-adv-x="503" 
d="M405 583q0 -37 -23.5 -69t-80.5 -48q-4 -2 -6 -2q-11 -5 -24 -9t-26 -9v-65h127v-75h-127v-72h127v-74h-127v-160h-84v160h-130l1 74h129v72h-130l1 75h129v65q-13 5 -26 9t-25 9q-4 0 -6 2q-57 16 -80.5 48t-23.5 69v24v118h85v-131q0 -13 8 -27.5t32 -23.5
q4 -2 10.5 -4t12.5 -4q11 -4 25.5 -9t28.5 -10q15 5 29.5 10t25.5 9l12 4t11 4q24 9 31.5 24t8.5 27v131h85v-118v-24z" />
    <glyph glyph-name="parenright" unicode=")" horiz-adv-x="315" 
d="M220 450q25 -97 25 -185t-25 -185q-11 -39 -25 -79t-31 -82q-21 -49 -40 -85t-30 -56h-74l11 19l6.5 11.5t17 31t24 47.5t27.5 61q13 30 25 67t21.5 78t15.5 85t6 87q0 44 -6 87.5t-15.5 84.5t-21.5 78t-25 67q-14 33 -27.5 61t-24 47.5t-17 31l-6.5 11.5l-11 18h74
q11 -20 30.5 -56t39.5 -84q34 -82 56 -161z" />
    <glyph glyph-name="bracketleft" unicode="[" horiz-adv-x="275" 
d="M70 681v-833h107v-70h-177v973h177v-70h-107z" />
    <glyph glyph-name="bracketright" unicode="]" horiz-adv-x="295" 
d="M197 751v-973h-177v70h107v833h-107v70h177z" />
    <glyph glyph-name="braceleft" unicode="{" horiz-adv-x="357" 
d="M154 409q0 -46 -13 -74t-30 -44q-19 -18 -43 -26v-3q24 -7 43 -25q17 -15 30 -43t13 -75v-169q0 -8 0.5 -17t1.5 -18q3 -16 9 -32q3 -8 8 -13.5t10 -10.5q13 -11 32 -11h44v-70h-65q-16 0 -37 8q-19 9 -33 25q-8 8 -14 18t-11 23q-10 23 -10 56v189q0 28 -8 54
q-5 12 -10 23t-12 19q-13 18 -31 29q-7 4 -14 6l-14 4v63l14 4t14 6q18 9 31 28q13 17 22 43q8 26 8 55v190q0 34 10 57q9 24 25 40q14 16 33 25q21 8 37 8h65v-70h-44q-21 0 -32 -10q-5 -5 -10 -11.5t-8 -14.5q-6 -13 -9 -32q-1 -9 -1.5 -18t-0.5 -18v-168v0z" />
    <glyph glyph-name="braceright" unicode="}" horiz-adv-x="377" 
d="M251 305q12 -7 28 -10v-63q-16 -3 -28 -10q-9 -5 -17 -12t-15 -17q-13 -16 -21 -42q-5 -12 -6.5 -26t-1.5 -28v-189q0 -16 -2.5 -30t-7.5 -26q-10 -26 -26 -41q-14 -16 -33 -25q-19 -8 -37 -8h-64v70h43q19 0 32 11q12 9 18 24q8 15 9 32q3 18 3 35v169q0 47 13 75t30 43
q19 18 43 25v3q-24 8 -43 26q-17 16 -30 44t-13 74v168q0 18 -3 36q-2 19 -9 32q-5 15 -18 26q-11 10 -32 10h-43v70h64q18 0 37 -8q19 -9 33 -25q8 -8 14.5 -18t11.5 -22t7.5 -26.5t2.5 -30.5v-190q0 -15 1.5 -29t6.5 -26q7 -25 21 -43q13 -18 32 -28z" />
    <glyph glyph-name="sterling" unicode="&#xa3;" horiz-adv-x="475" 
d="M0 70q9 3 27.5 6.5t37.5 15t34.5 35.5t19.5 70v1v6v2v186h-119v74h119v123v19q0 11 4 31.5t21 40.5t51 34.5t94 14.5q16 0 29 0.5t27 -1.5l-19 -73q-12 0 -20 -0.5t-19 -0.5q-28 0 -44.5 -7t-25 -16.5t-11 -20t-2.5 -18.5v-10v-116h121v-74h-121v-188v-23
q-2 -41 -18.5 -68.5t-41.5 -42.5h233v-70h-377v70z" />
    <glyph glyph-name="ntilde" unicode="&#xf1;" horiz-adv-x="439" 
d="M79 616q-11 -14 -12 -40h-60q3 57 25 85q23 29 65 29q37 0 66 -19l30 -18q28 -17 42 -17q15 0 26 14q10 14 11 40h60q-3 -58 -25 -86t-65 -28q-37 0 -66 19l-29 18q-26 16 -42 16q-17 0 -26 -13zM341 0h-85v384v9q0 9 -2.5 19.5t-11.5 20t-25.5 16t-43.5 6.5
q-28 0 -45.5 -6.5t-27 -15.5t-12.5 -19.5t-3 -18.5v-11v-384h-85v391v18q0 12 4 32t21.5 40t51.5 34.5t94 14.5t94 -14.5t51 -34.5t21 -40.5t4 -31.5v-10v-399z" />
    <glyph glyph-name="otilde" unicode="&#xf5;" 
d="M340 129v-15q0 -12 -4 -32.5t-21 -40.5t-51 -34.5t-94 -14.5t-94 15t-51 35t-21 40.5t-4 31.5v10v285q0 12 4 32t21 40t51 34.5t94 14.5t94 -14.5t51 -34t21 -40t4 -32.5v-280zM255 139v245v11q0 8 -3 18.5t-12 19.5t-26.5 15.5t-46.5 6.5q-27 0 -43.5 -6.5t-25.5 -16
t-11.5 -20t-2.5 -19.5v-9v-245v-9q0 -9 2.5 -19.5t11.5 -20.5t25.5 -16.5t43.5 -6.5q29 0 46.5 6.5t26.5 15.5t12 19.5t3 19.5v11zM79 616q-11 -14 -12 -40h-60q3 57 25 85q23 29 65 29q37 0 66 -19l30 -18q28 -17 42 -17q15 0 26 14q10 14 11 40h60q-3 -58 -25 -86t-65 -28
q-37 0 -66 19l-29 18q-26 16 -42 16q-17 0 -26 -13z" />
    <glyph glyph-name="Ydieresis" unicode="&#x178;" 
d="M340 226v-94v-19q0 -12 -4 -32t-21 -40t-51 -34.5t-94 -14.5t-94 14.5t-51 34.5t-21 40.5t-4 31.5v28h84v-12q0 -9 2.5 -19.5t11.5 -20t25.5 -16t43.5 -6.5q29 0 46 6.5t26.5 15.5t12.5 19.5t3 18.5v11v88v10q0 12 -7 28.5t-33 25.5l-15 5t-16 6l-75 25q-4 2 -6 2
q-57 17 -80 49t-23 68v24v256h84v-268q1 -13 9 -28t32 -23q4 -2 10 -4t13 -4q17 -7 40.5 -15t43.5 -15q6 -2 12 -3.5t11 -3.5v364h85v-474v-1v-24zM126 764h-84v100h84v-100zM298 763h-85v101h85v-101z" />
    <glyph glyph-name="slash" unicode="/" horiz-adv-x="441" 
d="M343 734q-15 -42 -36.5 -101t-46 -126.5t-50.5 -139.5t-51 -140t-47 -128.5t-38 -105.5h-74l269 741h74z" />
    <glyph glyph-name="backslash" unicode="\" horiz-adv-x="441" 
d="M74 734l269 -741h-74q-16 45 -38 105.5t-47 128.5t-51 140t-50.5 139.5t-46 126.5t-36.5 101h74z" />
    <glyph glyph-name="numbersign" unicode="#" horiz-adv-x="480" 
d="M394 590h-64q-7 -17 -13.5 -34.5t-13.5 -35.5h64l-27 -71h-64q-7 -17 -13 -33t-11 -31h-71q6 17 12.5 35t11.5 29h-70q-7 -17 -13 -33t-12 -31h-71q7 17 13.5 35t11.5 29h-64l27 71h64l27 70h-64l27 71h64l24 64h71l-24 -64h70l25 64h71q-5 -13 -11 -29t-14 -35h64z
M259 590h-70q-7 -17 -13.5 -34.5t-13.5 -35.5h70z" />
    <glyph glyph-name="ampersand" unicode="&#x26;" horiz-adv-x="741" 
d="M597 0q-16 16 -33 32t-33 33q-24 -33 -69.5 -51.5t-123.5 -18.5q-143 0 -198 64q-20 23 -26 47.5t-6 43.5v45q0 49 21 92t68 69l29 16q-6 5 -11.5 11t-10.5 11l-5 4q-19 21 -25.5 49.5t-6.5 67.5v98q0 5 1 13.5t3 17.5q4 14 12.5 28.5t25 27.5t42 22t63.5 11q5 1 9 1h14
q5 0 14 -0.5t10 -0.5q38 -2 63.5 -11t41.5 -22t24.5 -27.5t12.5 -27.5q3 -10 3.5 -18.5t0.5 -13.5v-79q0 -48 -16 -79t-54 -53l-82 -47l140 -147v68l72 49v-105q0 -20 -1 -38t-4 -35q30 -30 55.5 -56.5t45.5 -46.5q23 -24 41 -44h-107zM252 491q2 -27 13.5 -42.5t27.5 -31.5
l5 -5l90 50q23 16 29 36.5t6 50.5v54q-1 2 -1 5t-1 6q-5 16 -22.5 30t-61.5 14t-61 -14t-22 -30q-1 -3 -1.5 -8.5t-0.5 -7.5v-107zM341 61q55 0 84.5 17.5t43.5 48.5l-96.5 96.5t-89.5 90.5q-11 -6 -21 -11l-16 -10t-13 -8q-26 -20 -35.5 -47t-9.5 -58v-4t1 -9q1 -9 7 -29.5
t23 -37.5q39 -39 122 -39z" />
    <glyph glyph-name="at" unicode="@" horiz-adv-x="741" 
d="M429 530q84 -2 123 -36.5t39 -84.5v-47v-220v-28q0 -19 -6.5 -40t-25.5 -39t-51.5 -30t-85.5 -12t-86 12t-52 30t-25.5 39.5t-6.5 39.5v46q0 38 19 69t56 44q18 6 41 14t44.5 15.5t37.5 13.5t20 7q4 2 10 5.5t12 10.5t10.5 16t4.5 21v19q0 20 -16 39t-62 21h-88
q-62 0 -97 -14t-52 -33.5t-21 -40.5t-4 -35v-339q0 -14 4 -36.5t21 -43.5t52 -36t97 -15h242v-70h-240q-85 0 -133.5 21t-73 49.5t-30.5 57.5t-6 45v393q0 11 2 28t10.5 36t24 38t42.5 34.5t67 25.5t97 10h86v0zM507 266q-2 -11 -9.5 -16t-15.5 -7q-15 -5 -32.5 -11
t-32.5 -11q-18 -6 -34 -12q-12 -5 -23 -15q-9 -8 -16.5 -20.5t-7.5 -31.5q0 -37 18 -56t68 -19t67.5 19.5t17.5 55.5v124z" />
    <glyph glyph-name="asterisk" unicode="*" horiz-adv-x="375" 
d="M188 725v-101q2 1 16.5 6t31.5 12l46 18l27 -64q-27 -9 -48 -17q-18 -7 -33 -12t-17 -6q1 -1 10 -14t20 -28q13 -18 29 -40l-55 -41l-61 86q-1 -1 -10 -14.5t-20 -29.5l-28 -42l-59 41l58 82q-1 1 -16.5 6t-32.5 12q-20 8 -46 17l24 64l46 -18q17 -7 31.5 -12t16.5 -6
v101h68h2z" />
    <glyph glyph-name="plusminus" unicode="&#xb1;" horiz-adv-x="496" 
d="M264 71h134v-71h-340v71h134v140h-134v71h135v135h71v-135h134v-71h-134v-140z" />
    <glyph glyph-name="lessequal" unicode="&#x2264;" horiz-adv-x="499" 
d="M-23 61v-61h423v61h-423zM-23 314l424 166v-66l-337 -129v-3l337 -127v-66l-424 166v59z" />
    <glyph glyph-name="greaterequal" unicode="&#x2265;" horiz-adv-x="522" 
d="M424 61v-61h-424v61h424zM424 255l-424 -166v66l337 127v3l-337 129v66l423 -166z" />
    <glyph glyph-name="florin" unicode="&#x192;" horiz-adv-x="389" 
d="M149 523h86v-71h-86v-412q0 -11 -4 -31.5t-20 -40.5t-49 -34.5t-90 -14.5h-63l19 74q13 1 21 1h19q27 0 43.5 7t25.5 16.5t11.5 20t2.5 19.5v395h-65v71h65v90q0 11 4 31.5t21 40.5t51 34.5t94 14.5h28t28 -1l-20 -72q-12 -1 -19.5 -1.5t-19.5 -0.5q-27 0 -43.5 -7
t-25.5 -16.5t-11.5 -20t-2.5 -19.5v-9v-64z" />
    <glyph glyph-name="guilsinglleft" unicode="&#x2039;" horiz-adv-x="330" 
d="M153 458h79l-153 -171l153 -172h-79l-153 172z" />
    <glyph glyph-name="guilsinglright" unicode="&#x203a;" horiz-adv-x="330" 
d="M79 112h-79l153 171l-153 172h79l153 -172z" />
    <glyph glyph-name="questiondown" unicode="&#xbf;" 
d="M170 -213q-60 0 -94 14.5t-51 34.5t-21 40.5t-4 32.5v154h1q0 17 6.5 36.5t20.5 39.5l79 104q5 5 9 12q8 13 11 35v67h85v-75q-2 -33 -22 -61q-4 -5 -18 -23.5t-29.5 -39t-28 -37.5t-13.5 -19q-8 -10 -11.5 -20.5t-4.5 -20.5v-138q0 -9 3 -19.5t12.5 -19.5t27 -15.5
t45.5 -6.5q27 0 43.5 6.5t25.5 16.5t11.5 20.5t2.5 19.5v73h84v-102q-1 -14 -8 -32.5t-25 -35.5t-51 -29t-86 -12zM213 432h-86v88h86v-88z" />
    <glyph glyph-name="exclamdown" unicode="&#xa1;" horiz-adv-x="184" 
d="M0 329h85v-542h-85v542zM-1 425v89h87v-89h-87z" />
    <glyph glyph-name="fraction" unicode="&#x2044;" horiz-adv-x="442" 
d="M344 725q-16 -42 -37.5 -101t-46 -126.5t-50.5 -139.5t-51 -140t-47 -128.5t-38 -105.5h-74l269 741h75z" />
    <glyph glyph-name="fraction" unicode="&#x2215;" horiz-adv-x="442" 
d="M344 725q-16 -42 -37.5 -101t-46 -126.5t-50.5 -139.5t-51 -140t-47 -128.5t-38 -105.5h-74l269 741h75z" />
    <glyph glyph-name="equal" unicode="=" horiz-adv-x="493" 
d="M395 233v-71h-340v71h340zM395 375v-71h-340v71h340z" />
    <glyph glyph-name="notequal" unicode="&#x2260;" horiz-adv-x="467" 
d="M250 309q-7 -18 -13.5 -35.5t-12.5 -35.5h145v-71h-171q-10 -27 -19.5 -53.5t-18.5 -52.5h-75l39 106h-95v71h120l26 71h-146v71h172l37 103h75q-9 -25 -18.5 -51t-19.5 -52h94v-71h-119z" />
    <glyph glyph-name="approxequal" unicode="&#x2248;" horiz-adv-x="493" 
d="M249 228q12 -3 22.5 -5t18.5 -2q14 0 25 6.5t23 23.5l57 -40q-25 -36 -52 -48t-53 -12q-16 0 -29.5 2.5t-25.5 5.5l-2 1q-5 1 -9.5 2t-8.5 2l-7 1q-14 3 -26.5 5t-23.5 2q-17 0 -29.5 -6t-22.5 -21l-59 38q33 50 92 58q5 1 9 1h10q17 0 33.5 -2.5t30.5 -5.5l7 -2l10 -2z
M208 307q-14 3 -26.5 5t-23.5 2q-17 0 -29.5 -6t-22.5 -21l-59 38q33 50 92 58q5 1 9 1h10q17 0 33.5 -2.5t30.5 -5.5l7 -2l10 -2l10 -2q12 -3 22.5 -5t18.5 -2q14 0 25 6.5t23 23.5l57 -40q-25 -36 -52 -48t-53 -12q-16 0 -29.5 2.5t-25.5 5.5l-2 1q-5 1 -9.5 2t-8.5 2
l-7 1v0z" />
    <glyph glyph-name="degree" unicode="&#xb0;" horiz-adv-x="388" 
d="M220 580q0 31 -22 53t-53 22q-32 0 -53.5 -22t-21.5 -53q0 -32 21.5 -53.5t53.5 -21.5q31 0 53 21.5t22 53.5zM145 725q30 0 56.5 -11.5t46 -31t31 -46t11.5 -56.5t-11.5 -56.5t-31 -46t-46 -31t-56.5 -11.5t-56.5 11.5t-46 31t-31 46t-11.5 56.5t11.5 56.5t31 46t46 31
t56.5 11.5z" />
    <glyph glyph-name="bar" unicode="|" horiz-adv-x="211" 
d="M45 -7v741h68v-741h-68z" />
    <glyph glyph-name="asciitilde" unicode="~" horiz-adv-x="446" 
d="M0 236q33 50 92 58q5 1 10 1h10q17 0 32.5 -2.5t29.5 -5.5l28 -6q12 -3 22.5 -5t18.5 -2q14 0 25 7t23 24l57 -40q-26 -36 -53 -48.5t-53 -12.5q-16 0 -30.5 3t-26.5 6q-5 2 -9 2.5t-8 1.5l-7 1q-14 3 -27 5t-24 2q-17 0 -29.5 -6t-22.5 -21z" />
    <glyph glyph-name="percent" unicode="%" horiz-adv-x="630" 
d="M50 651q0 9 3.5 21.5t14.5 24.5t33 20.5t59 8.5t59 -8.5t33 -20.5t14.5 -24.5t3.5 -21.5v-177q0 -9 -3.5 -22t-14.5 -25t-33 -20.5t-59 -8.5t-59 8.5t-33 20.5t-14.5 25t-3.5 22v177v0zM109 483q0 -12 9.5 -23t39.5 -11q17 0 27.5 3.5t16 8.5t7.5 11t2 10v160q0 5 -2 11
t-7.5 11t-16 8.5t-27.5 3.5q-30 0 -39.5 -11.5t-9.5 -23.5v-158v0zM362 254q0 9 3.5 21.5t14.5 24.5t33 20.5t59 8.5t59 -8.5t33 -20.5t14.5 -24.5t3.5 -21.5v-177q0 -9 -3.5 -22t-14.5 -25t-33 -20.5t-59 -8.5t-59 8.5t-33 20.5t-14.5 25t-3.5 22v177v0zM421 86
q0 -11 9 -22.5t40 -11.5q17 0 27.5 3.5t16 8.5t7.5 11t2 10v160q0 5 -2 11t-7.5 11t-16 8.5t-27.5 3.5q-31 0 -40 -11.5t-9 -23.5v-158v0zM531 734q-21 -42 -49.5 -101t-61.5 -126.5t-67.5 -139.5t-68 -140t-62.5 -128.5t-51 -105.5h-74l359 741h75z" />
    <glyph glyph-name="perthousand" unicode="&#x2030;" horiz-adv-x="929" 
d="M34 651q0 9 3.5 21.5t14.5 24.5t33 20.5t59 8.5t59 -8.5t33 -20.5t14.5 -24.5t3.5 -21.5v-177q0 -9 -3 -22t-14.5 -25t-33 -20.5t-59.5 -8.5q-37 0 -59 8.5t-33 20.5t-14.5 25t-3.5 22v177v0zM93 483q0 -12 9.5 -23t40.5 -11q17 0 27.5 3.5t16 8.5t7 11t1.5 10v160
q0 5 -1.5 11t-7 11t-16 8.5t-27.5 3.5q-31 0 -40.5 -11.5t-9.5 -23.5v-158v0zM346 254q0 9 3.5 21.5t14.5 24.5t33 20.5t59 8.5t59 -8.5t33 -20.5t14.5 -24.5t3.5 -21.5v-177q0 -9 -3.5 -22t-14.5 -25t-33 -20.5t-59 -8.5t-59 8.5t-33 20.5t-14.5 25t-3.5 22v177v0zM405 86
q0 -11 9.5 -22.5t40.5 -11.5q17 0 27 3.5t15.5 8.5t7.5 11t2 10v160q0 5 -2 11t-7.5 11t-15.5 8.5t-27 3.5q-31 0 -40.5 -11.5t-9.5 -23.5v-158v0zM611 254q0 9 3.5 21.5t14.5 24.5t33 20.5t59 8.5t59 -8.5t33 -20.5t14.5 -24.5t3.5 -21.5v-177q0 -9 -3.5 -22t-14.5 -25
t-33 -20.5t-59 -8.5t-59 8.5t-33 20.5t-14.5 25t-3.5 22v177v0zM670 86q0 -11 9.5 -22.5t39.5 -11.5q17 0 27.5 3.5t16 8.5t7.5 11t2 10v160q0 5 -2 11t-7.5 11t-16 8.5t-27.5 3.5q-30 0 -39.5 -11.5t-9.5 -23.5v-158v0zM515 734q-21 -42 -49.5 -101t-61.5 -126.5
t-67.5 -139.5t-68 -140t-62.5 -128.5t-51 -105.5h-74l360 741h74z" />
    <glyph glyph-name="logicalnot" unicode="&#xac;" horiz-adv-x="464" 
d="M366 285v-206h-71v135h-269v71h340z" />
    <glyph glyph-name="germandbls" unicode="&#xdf;" 
d="M302 364q13 -10 20.5 -22t11.5 -23.5t5 -21.5t1 -17v-145h-1v-21q0 -11 -4 -31.5t-21 -40.5t-51 -34.5t-94 -14.5v75h2q28 0 44.5 6.5t25 16.5t11 20.5t2.5 19.5v9h1v124q0 9 -2.5 19.5t-11 20t-24.5 16.5t-43 7h-5v75h5q26 0 42 6.5t24.5 15.5t11.5 19t3 19v137
q0 8 -3 18.5t-12.5 19.5t-26.5 15.5t-46 6.5q-27 0 -43.5 -6.5t-25.5 -16t-11.5 -20t-2.5 -19.5v-596h-84v612q0 11 4 31.5t21 40.5t51 34.5t94 14.5t94 -14.5t51 -34.5t21 -40t4 -32v-164q0 -7 -1 -17t-5 -21.5t-11.5 -23.5t-20.5 -23z" />
    <glyph glyph-name="copyright" unicode="&#xa9;" horiz-adv-x="906" 
d="M475 317h85v-25q0 -11 -4 -31.5t-21 -40.5t-51 -34.5t-94 -14.5t-94 14.5t-51 34.5t-21 40t-4 32v20v105v25q0 12 4 32t21 40t51 34.5t94 14.5t94 -14.5t51 -34.5t21 -40.5t4 -31.5v-25h-85v9q0 9 -2.5 19.5t-11 20t-25 16t-44.5 6.5t-45 -6t-26.5 -15t-12.5 -19.5
t-3 -19.5v-11h-1v-100h1v-11q0 -8 3 -18.5t12.5 -19.5t26.5 -15.5t45 -6.5t44.5 6.5t25 16t11 20t2.5 19.5v9zM730 369v-196q0 -16 -6 -45t-30.5 -57.5t-73 -49.5t-133.5 -21h-53h-43h-51h-47q-85 0 -134 21t-73 49.5t-30 57.5t-6 45v192v8v192q0 16 6 45t30 57.5t73 49.5
t134 21h77h20h34h63q85 0 133.5 -21t73 -49.5t30.5 -57.5t6 -45v-196zM663 537q0 14 -4 36.5t-21 43.5t-52 36t-97 15h-97h-101q-62 0 -97 -15t-52 -36t-21 -43.5t-4 -36.5v-10v-149v-18v-149v-10q0 -14 4 -36.5t21 -43.5t52 -36t97 -15h97h101q62 0 97 15t52 36t21 43.5
t4 36.5v10v316v10z" />
    <glyph glyph-name="registered" unicode="&#xae;" horiz-adv-x="877" 
d="M390 588q56 0 88 -13.5t48 -32.5t20 -38t4 -30v-24v-9q0 -7 -1 -11v-3q-3 -25 -18 -46.5t-45 -37.5l64 -182h-84l-55 155q-11 -4 -21.5 -7.5t-18.5 -6.5q-10 -4 -17 -6q-12 -3 -22 -9q-8 -5 -15 -14t-7 -23v-1v-1v-87h-80v291v22q0 11 4 30t20 37.5t48 32.5t88 14z
M310 360q17 6 47.5 17t53.5 19q6 2 11.5 4t10.5 4q20 7 27.5 19.5t9.5 23.5v21q-1 8 -5 16.5t-13.5 16t-24.5 12.5t-39 5q-26 0 -41.5 -6.5t-23.5 -15.5t-10.5 -19t-2.5 -18v-9v-90v0zM730 369v-196q0 -11 -2 -28t-10 -36t-24 -38.5t-43 -35t-67 -25.5t-97 -10h-53h-43h-51
h-47q-85 0 -133.5 21t-73 49.5t-30.5 57.5t-6 45v192v8v192q0 16 6 45t30.5 57.5t73 49.5t133.5 21h77h20h34h63q57 0 97 -10t67 -25.5t43 -35t24 -38.5t10 -36t2 -28v-196zM663 537q0 14 -4 36.5t-21 43.5t-52 36t-97 15h-97h-101q-62 0 -97 -15t-52 -36t-21 -43.5
t-4 -36.5v-10v-150v-16v-150v-10q0 -14 4 -36.5t21 -43.5t52 -36t97 -15h97h101q62 0 97 15t52 36t21 43.5t4 36.5v10v157v2v157v10z" />
    <glyph glyph-name="trademark" unicode="&#x2122;" horiz-adv-x="1077" 
d="M979 300h-84v299q0 8 -3 18.5t-12.5 19.5t-26.5 15.5t-46 6.5q-27 0 -43.5 -6.5t-25.5 -16t-11.5 -20t-2.5 -19.5v-297h-85v299q0 8 -3 18.5t-12.5 19.5t-26.5 15.5t-46 6.5q-27 0 -43.5 -6.5t-25.5 -16t-11.5 -20t-2.5 -19.5v-297h-84v323q1 14 7.5 33t24.5 36.5
t51 29.5t87 12q48 0 78.5 -9.5t49.5 -23.5q19 14 49 23.5t78 9.5q52 0 84.5 -11t51 -27.5t25.5 -35t9 -32.5v-328zM340 727v-71h-128v-356h-84v356h-128v71h340z" />
    <glyph glyph-name="bullet" unicode="&#x2022;" horiz-adv-x="249" 
d="M151 250q0 -31 -22 -53t-53 -22q-32 0 -53.5 22t-21.5 53t21.5 53t53.5 22q31 0 53 -22t22 -53z" />
    <glyph glyph-name="divide" unicode="&#xf7;" horiz-adv-x="512" 
d="M416 872h66l-416 -945h-66l416 945v0z" />
    <glyph glyph-name="oslash" unicode="&#xf8;" horiz-adv-x="469" 
d="M330 460q7 -15 8.5 -28t1.5 -22v-280v-15q0 -12 -4 -32t-21 -40t-51 -34.5t-94 -14.5q-46 0 -76 9t-49 23l-16 -24h-60l42 64q-7 14 -9 27.5t-2 21.5v10v285q0 12 4.5 32t21.5 40t51 34.5t93 14.5q47 0 77 -8.5t49 -22.5l15 23h60l-41 -63v0zM85 385v-207l162 248
q-8 12 -26 21t-53 9q-27 0 -43.5 -6.5t-25.5 -16t-11.5 -20t-2.5 -19.5v-9zM256 140v208l-163 -249q8 -12 25 -21.5t50 -9.5q29 0 46 6.5t26.5 16t12.5 20t3 18.5v11z" />
    <glyph glyph-name="Oslash" unicode="&#xd8;" horiz-adv-x="468" 
d="M339 603v-478v-10q0 -12 -4 -32t-21 -40t-51 -34.5t-94 -14.5q-51 0 -82.5 10t-49.5 26l-14 -29h-56l37 77q-4 11 -4.5 20.5t-0.5 16.5v25v447v26q0 11 4 31.5t21 40.5t51 34.5t94 14.5q50 0 81.5 -10.5t50.5 -25.5l14 29h55l-37 -78q4 -11 5 -20.5t1 -15.5v-10zM83 243
l171 357q0 9 -3.5 19t-13 19t-26.5 15t-45 6q-27 0 -43.5 -6.5t-25.5 -16t-11.5 -20.5t-2.5 -19v-10v-344zM254 140v345l-171 -357q0 -9 3.5 -19.5t12.5 -19.5t25 -15t42 -6q29 0 46 6.5t26.5 16t12.5 20t3 18.5v11z" />
    <glyph glyph-name="paragraph" unicode="&#xb6;" horiz-adv-x="599" 
d="M501 716v-929h-85v858h-128v-858h-85v523q-42 0 -79 16t-64.5 43.5t-43.5 64.5t-16 79t16 79t43.5 64.5t64.5 43.5t79 16h9h26h256h7z" />
    <glyph glyph-name="Delta" unicode="&#x394;" horiz-adv-x="744" 
d="M323 732l323 -732h-646l323 732v0zM91 59h420l-210 475l-210 -475v0z" />
    <glyph glyph-name="Delta" unicode="&#x2206;" horiz-adv-x="744" 
d="M323 732l323 -732h-646l323 732v0zM91 59h420l-210 475l-210 -475v0z" />
    <glyph glyph-name="lozenge" unicode="&#x25ca;" horiz-adv-x="512" 
d="M414 362l-174 -362v0v0h-66h-1h1l-174 362l174 362l-1 1h1h66v0v-1l174 -362v0zM66 362l141 -293l141 293l-141 293l-141 -293v0z" />
    <glyph glyph-name="daggerdbl" unicode="&#x2021;" horiz-adv-x="500" 
d="M244 441v-379h158v-71h-158v-204h-85v204h-159v71h159v379h-159v71h159v211h85v-211h158v-71h-158z" />
    <glyph glyph-name="cent" unicode="&#xa2;" 
d="M255 388v10q0 18 -14 36.5t-53 22.5v-386q39 4 53 22.5t14 51.5h85v-28q0 -18 -6 -38.5t-23 -38t-46.5 -30t-76.5 -14.5v-50h-35v50q-47 2 -77 14.5t-47 30t-23 38t-6 38.5v46v225v24q0 48 36 82.5t117 38.5v50h35v-50q79 -5 115.5 -38.5t36.5 -82.5v-24h-85zM85 145
q0 -34 14.5 -52.5t53.5 -21.5v386q-40 -4 -54.5 -23.5t-14.5 -45.5v-243h1v0z" />
    <glyph glyph-name="emdash" unicode="&#x2014;" horiz-adv-x="694" 
d="M596 285v-71h-596v71h596z" />
    <glyph glyph-name="integral" unicode="&#x222b;" horiz-adv-x="389" 
d="M149 523v-71v-412q0 -11 -4 -31.5t-20 -40.5t-49 -34.5t-90 -14.5h-63l19 74q13 1 21 1h19q27 0 43.5 7t25.5 16.5t11.5 20t2.5 19.5v395v71v90q0 11 4 31.5t21 40.5t51 34.5t94 14.5h28t28 -1l-20 -72q-12 -1 -19.5 -1.5t-19.5 -0.5q-27 0 -43.5 -7t-25.5 -16.5
t-11.5 -20t-2.5 -19.5v-9v-64z" />
    <glyph glyph-name="dagger" unicode="&#x2020;" horiz-adv-x="501" 
d="M245 443v-654h-85v654h-160v71h160v211h85v-211h158v-71h-158z" />
    <glyph glyph-name="partialdiff" unicode="&#x2202;" 
d="M255 527q22 -7 38 -20t26.5 -29t15.5 -34.5t5 -36.5v-48v-219v-29q0 -18 -6.5 -39.5t-25.5 -39.5t-52 -30t-86 -12t-86 12t-52 30t-25.5 39.5t-6.5 39.5v47q0 38 19.5 69t55.5 44q18 6 41.5 14t44.5 15.5t37 13.5t20 7t10.5 5t12.5 10.5t10 16t4 21.5v18v6v129v0z
M256 264q-2 -11 -10 -16t-15 -7q-15 -5 -32.5 -11.5t-32.5 -11.5q-18 -6 -34 -12q-12 -5 -23 -14q-9 -8 -16.5 -20.5t-7.5 -31.5q0 -38 18 -56.5t67 -18.5q50 0 68 19.5t18 55.5v124z" />
    <glyph glyph-name="uni00B5" unicode="&#xb5;" horiz-adv-x="439" 
d="M341 133v-18q0 -12 -4 -32t-21 -40t-51 -34.5t-94 -14.5q-53 0 -86 12v-86h-85v225v378h85v-383v-9q0 -9 2.5 -19.5t11.5 -20t25.5 -16t43.5 -6.5q29 0 46 6.5t26.5 15.5t12.5 19.5t3 18.5v11v383h85v-390z" />
    <glyph glyph-name="summation" unicode="&#x2211;" horiz-adv-x="533" 
d="M435 663h-339q36 -46 72 -91.5t69 -87t61.5 -77.5t50.5 -64q-22 -29 -53.5 -68.5t-67.5 -84.5t-75 -94.5t-77 -97.5h358v-71h-434v71l263 332l-263 333v1v70h435v-71z" />
    <glyph glyph-name="product" unicode="&#x220f;" horiz-adv-x="561" 
d="M463 725v-71h-84v-654h-84v654h-171v-654h-85v654h-84v71h508v0z" />
    <glyph glyph-name="pi" unicode="&#x3c0;" horiz-adv-x="562" 
d="M464 522v-71h-84v-451h-85v451h-171v-451h-84v451h-85v71h509v0z" />
    <glyph glyph-name="radical" unicode="&#x221a;" horiz-adv-x="780" 
d="M684 871h66l-416 -944h-8h-58h-4l-145 330h-119v71h159l143 -324l382 867v0z" />
    <glyph glyph-name="Euro" unicode="&#x20ac;" horiz-adv-x="504" 
d="M406 -1h-54t-62 0.5t-53 0.5h-27q-28 0 -49.5 10.5t-35.5 27t-21 36.5t-7 39v12h-1v127h-96l21 74h75v72h-39h-57l21 75h75v119h1v19q0 19 7 39.5t21 37t35.5 27t49.5 10.5h196v-70h-107h-61q-26 0 -41 -17.5t-15 -42.5v-9h-2v-113h208l-21 -75h-187v-72h166l-20 -74
h-146v-113h2v-10q0 -24 15 -41.5t41 -17.5h61h107v-71z" />
    <glyph glyph-name="minus" unicode="&#x2212;" horiz-adv-x="497" 
d="M399 285v-71h-399v71h71h328z" />
    <glyph glyph-name="yacute" unicode="&#xfd;" horiz-adv-x="439" 
d="M341 -78h-1v-14q0 -12 -4 -32t-21 -40t-51 -34.5t-94 -14.5t-94 14.5t-51 34.5t-21 40.5t-4 31.5v26h85v-9q0 -9 2.5 -19.5t11.5 -20.5t25.5 -16.5t43.5 -6.5q29 0 46 6.5t26.5 15.5t12.5 19.5t3 19.5v1v18q0 12 -4.5 21t-10.5 16t-12.5 10.5t-10.5 5.5q-4 1 -20 7
t-37 13.5t-44.5 15.5t-41.5 14q-36 13 -55.5 44t-19.5 69v23v340h85v-340v-5q0 -19 7.5 -31.5t16.5 -20.5q11 -9 23 -14q16 -6 34 -12q15 -5 32.5 -11.5t32.5 -11.5q8 -2 15.5 -7t9.5 -16v124v5v340h85v-599zM336 726l-32.5 -32.5t-49 -49.5t-47 -47t-26.5 -25q-4 -4 -14 -7
t-20 -5q-11 -3 -25 -4q26 43 47 78l18 30l16.5 27.5t13 21.5t7.5 13h112v0z" />
    <glyph glyph-name="Yacute" unicode="&#xdd;" 
d="M340 226v-94v-19q0 -12 -4 -32t-21 -40t-51 -34.5t-94 -14.5t-94 14.5t-51 34.5t-21 40.5t-4 31.5v28h84v-12q0 -9 2.5 -19.5t11.5 -20t25.5 -16t43.5 -6.5q29 0 46 6.5t26.5 15.5t12.5 19.5t3 18.5v11v88v10q0 12 -7 28.5t-33 25.5l-15 5t-16 6l-75 25q-4 2 -6 2
q-57 17 -80 49t-23 68v24v256h84v-268q1 -13 9 -28t32 -23q4 -2 10 -4t13 -4q17 -7 40.5 -15t43.5 -15q6 -2 12 -3.5t11 -3.5v364h85v-474v-1v-24zM279 914q-6 -6 -19 -18.5t-29 -29t-33.5 -34t-33 -32.5t-26.5 -25.5t-14 -13.5q-5 -4 -14 -7t-20 -5q-12 -3 -26 -4
q26 42 47 77l18 30t16.5 28t13.5 22t8 13z" />
    <glyph glyph-name="Omega" unicode="&#x3a9;" horiz-adv-x="517" 
d="M419 -9v-71h-189v71v5q0 19 19.5 36.5t40.5 26.5q15 8 21.5 22.5t6.5 25.5v10v471v11q0 8 -8 18.5t-23 19.5t-37 15.5t-51 6.5q-27 0 -48.5 -6.5t-36.5 -16t-22.5 -20t-7.5 -19.5v-9v-471v-10q0 -11 6.5 -25.5t21.5 -22.5q21 -9 40.5 -26.5t19.5 -36.5v-5v-71h-187v71h81
q-35 18 -50.5 45t-15.5 57v11v492v17q0 11 9 31.5t32 40.5t62 34.5t99 14.5t98.5 -14.5t61.5 -34.5t32 -40t9 -32v-19v-485h-1v-16q0 -30 -15 -57t-50 -45h82z" />
    <glyph glyph-name="thorn" unicode="&#xfe;" 
d="M340 136v-23q0 -25 -9.5 -47t-30.5 -38.5t-53 -26t-77 -9.5q-50 0 -85 12v-207h-85v928h85v-208q37 13 85 13q45 0 77 -9.5t53 -26t30.5 -38.5t9.5 -47v-24v-249zM170 66q24 0 40.5 5.5t26 14.5t14 21t5.5 25v257q-1 14 -5.5 26t-14 21t-26 14t-40.5 5q-25 0 -41 -5.5
t-26 -14.5t-14 -20t-4 -21v-267q0 -10 4 -21t14 -20t26 -14.5t41 -5.5z" />
    <glyph glyph-name="Thorn" unicode="&#xde;" 
d="M340 340v-24q0 -25 -9.5 -47t-30 -38.5t-53 -26t-77.5 -9.5q-50 0 -85 12v-207h-85v725h85v-207q35 12 85 12q45 0 77.5 -9.5t53 -26t30 -38.5t9.5 -47v-24v-45zM170 270q24 0 40.5 5t26 14t14 21t5.5 25v55q-1 13 -5.5 25t-14 21t-26 14t-40.5 5q-25 0 -41 -5.5
t-26 -14.5t-14 -19.5t-4 -20.5v-64q0 -10 4 -21t14 -20t26 -14.5t41 -5.5z" />
    <glyph glyph-name="mu" unicode="&#x3bc;" horiz-adv-x="439" 
d="M341 133v-18q0 -12 -4 -32t-21 -40t-51 -34.5t-94 -14.5q-53 0 -86 12v-86h-85v225v378h85v-383v-9q0 -9 2.5 -19.5t11.5 -20t25.5 -16t43.5 -6.5q29 0 46 6.5t26.5 15.5t12.5 19.5t3 18.5v11v383h85v-390z" />
    </font>
</defs>
</svg>
